<?xml version="1.0" encoding="utf-8"?>
<!-- Generator: Adobe Illustrator 25.2.3, SVG Export Plug-In . SVG Version: 6.00 Build 0)  -->
<svg version="1.1" id="Слой_1" xmlns="http://www.w3.org/2000/svg" xmlns:xlink="http://www.w3.org/1999/xlink" x="0px" y="0px"
	 viewBox="0 0 1559 198" style="enable-background:new 0 0 1559 198;" xml:space="preserve">
<style type="text/css">
	.st0{fill:#92278F;}
	.st1{fill:none;stroke:#FFFFFF;stroke-width:2;stroke-miterlimit:10;stroke-dasharray:6,4;}
	.st2{fill:#FFFFFF;}
	.st3{fill:#B872B6;}
	.st4{fill:#CE9ECC;}
	.st5{fill:#FFFFFF;stroke:#000000;stroke-width:0.8913;stroke-miterlimit:10;}
	.st6{fill:#FFFFFF;stroke:#000000;stroke-width:0.8528;stroke-miterlimit:10;}
	.st7{fill:#FFFFFF;stroke:#000000;stroke-width:1.2035;stroke-miterlimit:10;}
	.st8{fill:none;stroke:#000000;stroke-width:0.6017;stroke-miterlimit:10;}
	.st9{fill:none;stroke:#000000;stroke-width:1.2035;stroke-miterlimit:10;}
	.st10{fill:none;stroke:#000000;stroke-width:0.8528;stroke-miterlimit:10;}
	.st11{fill:#FFFFFF;stroke:#FFFFFF;stroke-width:0.2971;stroke-miterlimit:10;}
	.st12{stroke:#FFFFFF;stroke-width:0.4012;stroke-miterlimit:10;}
	.st13{fill:none;stroke:#FFFFFF;stroke-width:0.8175;stroke-miterlimit:10;}
	.st14{fill:none;stroke:#000000;stroke-width:0.7867;stroke-miterlimit:10;}
	.st15{fill:none;stroke:#000000;stroke-width:1.5734;stroke-miterlimit:10;}
	.st16{fill:#FFFFFF;stroke:#000000;stroke-width:0.5942;stroke-miterlimit:10;}
	.st17{fill:#C9E6EB;}
</style>
<path class="st0" d="M1555.6,198.5h3.4V0L0,0.6v198h1128.4c0.7-0.3,1.4-0.5,2.3-0.5h422.8C1554.3,198.1,1555,198.2,1555.6,198.5z"/>
<g>
	<path class="st1" d="M159.4,198.2C145,191,137,177,124,169c-6-4-15-5-20,1c-1,11-5,25-17.1,28.1"/>
	<path class="st1" d="M192.8,97.1C178,101,155,102,151,121c-2,9,3,17,9,23c8,7,16,13,27,16c15,5,30,22,20.2,38"/>
	<path class="st1" d="M0.7,187.6c16.1-2.7,31.1-10.3,44.8-18.9"/>
	<g>
		<path d="M202,89.2c-1.5,2.5-2.9,5-4.3,7.4c-0.1,0.2-0.6,0.2-0.9,0.2c-0.1,0-0.3-0.4-0.4-0.6c-3.4-6.9-6.9-13.8-10.2-20.7
			c-0.6-1.3-1.4-2.2-2.5-3c-5-3.4-9.9-7-14.8-10.5c-0.3-0.2-0.5-0.7-0.7-1c0.4-0.2,0.7-0.6,1.1-0.7c7.2-0.7,14.4-1.5,21.6-1.9
			c17.8-0.9,35.4-3.1,52.8-6.8c1.6-0.3,3.1-0.6,4.7-0.8c0.5-0.1,1,0.2,1.4,0.3c-0.2,0.5-0.3,1-0.7,1.4c-1.3,1.3-2.6,2.5-4,3.8
			c-8.3,7.7-14.8,16.8-20.7,26.4c-2.9,4.7-6,9.2-8.9,13.8c-0.6,0.9-1.1,0.9-1.9,0.3c-3.5-2.4-7-4.6-10.6-7
			C202.9,89.7,202.7,89.6,202,89.2z M243.2,52.9c0-0.1,0-0.1,0-0.2c-0.3,0-0.6,0-1,0.1c-3.2,0.5-6.5,1.1-9.7,1.5
			c-8.9,1.3-17.7,2.9-26.6,3.8c-12,1.2-24,1.9-36,2.9c-0.4,0-0.8,0.1-1.4,0.2c0.4,0.3,0.6,0.5,0.8,0.6c5.4,3.8,10.8,7.7,16.3,11.5
			c0.3,0.2,0.9,0.2,1.3,0.1c5.3-1.9,10.5-3.7,15.8-5.7c12.7-4.6,25.4-9.3,38.1-13.9C241.6,53.5,242.4,53.2,243.2,52.9z M214.8,96.5
			c8.6-14.4,17.1-28.7,29.3-40.4c-0.1-0.1-0.1-0.1-0.2-0.2c-15.8,9.6-31.6,19.2-47.3,28.7C202.7,88.5,208.7,92.5,214.8,96.5z
			 M196.6,94.1c0,0-0.1,0.1-0.1,0.1c0-0.4,0-0.7-0.1-1.1c-0.2-2.1-0.3-4.3-0.7-6.3c-0.3-1.8,0.2-2.7,1.7-3.6
			c11.8-7.1,23.5-14.3,35.3-21.4c4.6-2.8,9.3-5.7,13.9-8.5c0.4-0.2,0.7-0.6,1.1-0.8c0-0.1-0.1-0.1-0.1-0.2c-0.2,0.1-0.3,0.1-0.5,0.2
			c-14.8,5.3-29.5,10.7-44.3,16c-5.5,2-11,3.9-16.6,5.9C189.6,80.9,193.1,87.5,196.6,94.1z"/>
		<path class="st2" d="M243.2,52.9c-0.8,0.3-1.6,0.6-2.4,0.9c-12.7,4.6-25.4,9.3-38.1,13.9c-5.2,1.9-10.5,3.8-15.8,5.7
			c-0.4,0.1-1,0.1-1.3-0.1c-5.4-3.8-10.9-7.7-16.3-11.5c-0.2-0.2-0.4-0.3-0.8-0.6c0.6-0.1,1-0.1,1.4-0.2c12-0.9,24-1.6,36-2.9
			c8.9-0.9,17.8-2.5,26.6-3.8c3.2-0.5,6.5-1,9.7-1.5c0.3,0,0.6-0.1,1-0.1C243.2,52.7,243.2,52.8,243.2,52.9z"/>
		<path class="st2" d="M214.8,96.5c-6.1-4-12.2-8-18.2-11.9c15.7-9.5,31.5-19.1,47.3-28.7c0.1,0.1,0.1,0.1,0.2,0.2
			C231.9,67.8,223.4,82.1,214.8,96.5z"/>
		<path class="st2" d="M196.6,94.1c-3.5-6.6-6.9-13.1-10.5-19.8c5.6-2,11.1-3.9,16.6-5.9c14.8-5.3,29.5-10.7,44.3-16
			c0.2-0.1,0.3-0.1,0.5-0.2c0,0.1,0.1,0.1,0.1,0.2c-0.4,0.3-0.7,0.6-1.1,0.8c-4.6,2.8-9.3,5.7-13.9,8.5
			c-11.8,7.2-23.5,14.3-35.3,21.4c-1.5,0.9-2.1,1.8-1.7,3.6c0.4,2.1,0.5,4.2,0.7,6.3c0,0.4,0,0.7,0.1,1.1
			C196.5,94.1,196.5,94.1,196.6,94.1z"/>
	</g>
	<g>
		<path d="M59.2,156.5c-2.6,3.6-5.1,7.1-7.7,10.5c-0.2,0.3-0.9,0.2-1.3,0.1c-0.2-0.1-0.3-0.6-0.4-0.9c-4.1-11-8.4-21.9-12.3-32.9
			c-0.7-2-1.7-3.5-3.4-4.9c-7-5.9-13.9-12-20.7-18.1c-0.4-0.4-0.6-1.1-0.9-1.7c0.6-0.3,1.2-0.8,1.8-0.8c11,0.1,21.9-0.1,32.8,0.4
			c27,1.3,53.8,0.8,80.7-2.2c2.4-0.3,4.8-0.4,7.2-0.5c0.7,0,1.4,0.4,2.1,0.6c-0.4,0.7-0.7,1.5-1.2,2c-2.1,1.8-4.4,3.4-6.6,5.1
			c-13.7,10.3-24.9,23.1-35.2,36.7c-5,6.6-10.4,13-15.5,19.5c-1,1.3-1.7,1.2-2.9,0.2c-4.9-4.1-9.9-8.1-14.9-12.1
			C60.4,157.4,60.1,157.2,59.2,156.5z M126.9,107.9c0-0.1,0-0.2,0-0.3c-0.5,0-1-0.1-1.5,0c-5,0.3-9.9,0.6-14.9,0.8
			c-13.6,0.6-27.2,1.7-40.8,1.7c-18.3,0-36.5-0.7-54.8-1.1c-0.6,0-1.2,0-2.1,0c0.6,0.5,0.8,0.8,1.1,1c7.6,6.6,15.2,13.3,22.8,19.9
			c0.4,0.4,1.4,0.5,2,0.3c8.2-2,16.5-4.1,24.7-6.1c19.9-5.1,39.8-10.1,59.7-15.2C124.3,108.6,125.6,108.2,126.9,107.9z M77.4,169.4
			c15.1-20.4,30.2-40.7,50.4-56.5c-0.1-0.1-0.2-0.2-0.3-0.4c-25.3,12.1-50.6,24.1-75.8,36.1C60.2,155.6,68.8,162.5,77.4,169.4z
			 M50.2,163c-0.1,0-0.1,0.1-0.2,0.1c0-0.6,0.1-1.1,0.1-1.7c0-3.2,0.2-6.5-0.1-9.7c-0.3-2.7,0.7-4,3.1-5.2c18.9-8.9,37.7-18,56.5-27
			c7.4-3.6,14.9-7.1,22.3-10.7c0.6-0.3,1.2-0.7,1.8-1.1c-0.1-0.1-0.1-0.2-0.2-0.3c-0.3,0.1-0.5,0.1-0.8,0.2
			c-23.1,5.8-46.2,11.6-69.3,17.4c-8.6,2.1-17.2,4.2-26,6.4C41.7,142.2,45.9,152.6,50.2,163z"/>
		<path class="st2" d="M126.9,107.9c-1.3,0.3-2.5,0.7-3.8,1c-19.9,5.1-39.8,10.1-59.7,15.2c-8.2,2.1-16.4,4.1-24.7,6.1
			c-0.6,0.1-1.5,0-2-0.3c-7.6-6.6-15.2-13.2-22.8-19.9c-0.3-0.3-0.6-0.5-1.1-1c0.9,0,1.5,0,2.1,0c18.3,0.4,36.5,1.2,54.8,1.1
			c13.6,0,27.2-1.1,40.8-1.7c5-0.2,9.9-0.6,14.9-0.8c0.5,0,1,0,1.5,0C126.8,107.7,126.9,107.8,126.9,107.9z"/>
		<path class="st2" d="M77.4,169.4c-8.6-6.9-17.2-13.9-25.7-20.8c25.2-12,50.5-24,75.8-36.1c0.1,0.1,0.2,0.2,0.3,0.4
			C107.6,128.7,92.5,149,77.4,169.4z"/>
		<path class="st2" d="M50.2,163c-4.2-10.4-8.5-20.9-12.8-31.5c8.8-2.1,17.4-4.2,26-6.4c23.1-5.8,46.2-11.6,69.3-17.4
			c0.3-0.1,0.5-0.1,0.8-0.2c0.1,0.1,0.1,0.2,0.2,0.3c-0.6,0.4-1.2,0.8-1.8,1.1c-7.4,3.6-14.9,7.2-22.3,10.7
			c-18.8,9-37.6,18.1-56.5,27c-2.4,1.1-3.4,2.4-3.1,5.2c0.3,3.2,0.1,6.5,0.1,9.7c0,0.6,0,1.1-0.1,1.7C50,163.1,50.1,163.1,50.2,163z
			"/>
	</g>
</g>
<g>
	<path class="st3" d="M1559,198V40.7c-25.6-19.6-57.7-31.3-92.4-31.3c-84.1,0-152.2,68.1-152.2,152.2c0,12.8,1.4,24.5,4.4,36.4
		L1559,198z"/>
	<path class="st4" d="M1559,198.1V49.5c-25.1-20.8-57.8-34-92.9-34c-80.1,0-145,64.9-145,145c0,13,1.7,25.6,4.9,37.6H1559z"/>
	<g>
		<polyline class="st5" points="1375.9,126.6 1375.8,116.8 1381.2,116.6 1381.3,126.2 		"/>
		<ellipse cx="1458.1" cy="47.2" rx="49.8" ry="16.9"/>
		<rect x="1404.8" y="149.7" width="86.4" height="48.4"/>
		<g>
			<path class="st6" d="M1491.3,179.9"/>
			<path class="st6" d="M1491.2,149.7"/>
		</g>
		<polygon class="st7" points="1404.8,149.7 1491.2,149.7 1491.2,55.2 1426.4,55.2 		"/>
		<polyline class="st8" points="1453.3,55.2 1437.8,122.8 1468.4,122.8 1468.4,149.7 		"/>
		<line class="st9" x1="1468.5" y1="134.7" x2="1482.5" y2="131.2"/>
		<path class="st10" d="M1437.8,179.9"/>
		<circle class="st9" cx="1465.7" cy="94.8" r="6.7"/>
		<circle class="st9" cx="1433.2" cy="84.9" r="6.7"/>
		<line class="st9" x1="1458.8" y1="92.6" x2="1439.9" y2="86.6"/>
		<line class="st9" x1="1472.4" y1="95.3" x2="1493.6" y2="87.1"/>
		<line class="st9" x1="1426" y1="83" x2="1416.9" y2="83"/>
		<polygon points="1482.8,69.2 1457,78.7 1458.7,82.8 1483.6,71.1 		"/>
		<polygon points="1422.7,69.2 1448.5,77.1 1449.6,72.7 1423.2,67.3 		"/>
		<path class="st8" d="M1437.8,150.3"/>
		<circle class="st11" cx="1444.7" cy="168.1" r="1.2"/>
		<circle class="st11" cx="1444.7" cy="159.5" r="1.2"/>
		<circle class="st11" cx="1444.7" cy="185.5" r="1.2"/>
		<circle class="st11" cx="1444.7" cy="193.4" r="1.2"/>
		<circle class="st11" cx="1444.7" cy="176.9" r="1.2"/>
		<path class="st12" d="M1476.3,62.8c0,0-6.1,9.8-18.6,9.8s-36.1-0.8-39.8-2.9c-3.8-2.1,7.1-9.1,7.1-9.1l52.6,0.2L1476.3,62.8z"/>
		<path class="st12" d="M1492,61.9v-8.3c0,0-33.9-14.4-66.9-0.1l-0.3,8.6C1424.7,62,1457.6,61.9,1492,61.9z"/>
		<path class="st13" d="M1437.8,150.3c0.2,14.7,0.2,31.7,0,47.2"/>
		<g>
			<polyline class="st2" points="1496.8,179.4 1488.8,185.1 1485.6,180.9 1493.3,175.3 			"/>
			<polyline class="st14" points="1496.8,179.4 1488.8,185.1 1485.6,180.9 1493.3,175.3 			"/>
			<polygon points="1516.4,157.1 1488.6,157.1 1488.6,150.4 1537,150.4 1497.2,179.7 1493.1,174.3 			"/>
			<polygon class="st15" points="1516.4,157.1 1488.6,157.1 1488.6,150.4 1537,150.4 1497.2,179.7 1493.1,174.3 			"/>
		</g>
		<path class="st16" d="M1491.2,165.6l-53.4-15.3l-33,15.3v-15.9h86.4C1491.2,149.7,1491.2,165,1491.2,165.6z"/>
		<g>
			<g>
				<polyline points="1404.5,150.3 1381.6,150.3 1381.6,126.2 1375.5,126.2 1375.5,156.4 1404.5,156.4 				"/>
				<polygon points="1374.6,157.2 1404.5,157.2 1404.5,155.6 1376.3,155.6 1376.3,127 1380.7,127 1380.7,151.1 1404.5,151.1 
					1404.5,149.5 1382.4,149.5 1382.4,125.4 1374.6,125.4 				"/>
			</g>
		</g>
		<g>
			<path d="M1375,125.7h5.3v3.8h-5.3V125.7z M1379.5,126.6h-3.6v2.2h3.6V126.6z"/>
		</g>
		<g>
			<path d="M1375,125.8h6.9v9.5h-6.9V125.8z M1381.1,126.6h-5.3v7.8h5.3V126.6z"/>
		</g>
		<g>
			<path class="st17" d="M1400.8,110.8C1400.8,110.8,1400.8,110.8,1400.8,110.8c-0.1-0.1-0.1-0.1-0.1-0.2c-3-8.1-6-16.1-9-24.2
				c0,0,0,0,0,0C1394.8,94.5,1397.8,102.7,1400.8,110.8z"/>
			<path d="M1391.7,86.4c3,8.1,6,16.1,9,24.2c0,0.1,0,0.1,0.1,0.2c-0.1,0-0.2,0.1-0.4,0.1c-11.7,4.4-23.4,8.7-35.1,13.1
				c-0.3,0.1-0.2,0.1-0.3-0.1c-3-8-6-15.9-8.9-23.9c-0.1-0.3-0.1-0.2,0.2-0.3c11.8-4.4,23.5-8.8,35.3-13.2
				C1391.6,86.5,1391.6,86.5,1391.7,86.4z M1388.4,90.2c-9.1,3.4-18.2,6.8-27.3,10.2c0.3,0.1,0.5,0.2,0.8,0.3c1,0.4,2,0.8,3,1.2
				c1,0.4,2,0.8,3,1.2c1.6,0.7,3.2,1.3,4.8,1.9c0.4,0.2,0.8,0.3,1.2,0.5c1.3,0.5,2.6,1.1,4,1.6c0.8,0.3,1.9-0.1,2.2-0.9
				c0.6-1.3,1.3-2.5,1.9-3.8c0.9-1.7,1.8-3.5,2.7-5.2c1.1-2.1,2.2-4.3,3.3-6.4C1388.2,90.7,1388.3,90.5,1388.4,90.2z M1395.6,110.1
				c-0.3-0.2-0.7-0.3-1-0.4c-0.6-0.3-1.2-0.5-1.8-0.7c-1-0.4-1.9-0.8-2.9-1.2c-1.1-0.4-2.1-0.9-3.2-1.3c-1-0.4-1.9-0.8-2.9-1.2
				c0,0-0.1,0-0.1,0c-0.1-0.1-0.1,0-0.2,0.1c-0.2,0.3-0.3,0.6-0.5,0.9c-0.3,0.5-0.5,1-0.8,1.5c-0.7,1-1.6,1.6-2.8,1.9
				c-1,0.2-1.9,0.2-2.8-0.1c-0.7-0.3-1.4-0.6-2.2-0.9c-0.1-0.1-0.2,0-0.2,0.1c-0.2,0.5-0.5,1-0.7,1.4c-0.3,0.6-0.6,1.1-0.9,1.7
				c-0.6,1.2-1.2,2.3-1.8,3.5c-0.3,0.5-0.5,1-0.8,1.5c-0.3,0.6-0.6,1.2-0.9,1.8c-0.2,0.4-0.4,0.9-0.7,1.3c0,0.1-0.1,0.2-0.1,0.3
				C1377.5,116.9,1386.6,113.5,1395.6,110.1z M1360,102.8c2,5.5,4.1,11,6.1,16.5c0-0.1,0.1-0.1,0.1-0.2c0.3-0.5,0.5-1,0.8-1.5
				c0.6-1.1,1.2-2.2,1.7-3.4c0.3-0.6,0.6-1.1,0.9-1.7c0.3-0.6,0.6-1.1,0.8-1.7c0.4-0.8,0.8-1.6,1.2-2.4c0.1-0.2,0.2-0.5,0.4-0.7
				c0.1-0.1,0.1-0.1-0.1-0.2c-0.9-0.4-1.9-0.7-2.8-1.1c-1-0.4-2-0.8-2.9-1.2c-1.1-0.5-2.2-0.9-3.3-1.3c-0.8-0.3-1.6-0.7-2.4-1
				C1360.3,102.9,1360.1,102.8,1360,102.8z M1396.7,107.8c-2-5.4-4-10.8-6.1-16.3c-0.2,0.4-0.4,0.8-0.6,1.2
				c-0.9,1.8-1.8,3.5-2.7,5.3c-0.8,1.6-1.6,3.2-2.5,4.7c-0.1,0.1-0.1,0.2,0.1,0.3c0.1,0,0.2,0.1,0.3,0.1c1,0.4,2.1,0.8,3.1,1.3
				c1.1,0.4,2.1,0.9,3.2,1.3c1,0.4,1.9,0.8,2.9,1.2c0.5,0.2,1,0.4,1.6,0.6C1396.3,107.6,1396.5,107.7,1396.7,107.8z"/>
			<path class="st2" d="M1388.4,90.2c-0.1,0.3-0.3,0.5-0.4,0.7c-1.1,2.1-2.2,4.3-3.3,6.4c-0.9,1.7-1.8,3.5-2.7,5.2
				c-0.6,1.3-1.3,2.5-1.9,3.8c-0.4,0.7-1.5,1.2-2.2,0.9c-1.3-0.5-2.7-1.1-4-1.6c-0.4-0.2-0.8-0.3-1.2-0.5c-1.6-0.6-3.2-1.3-4.8-1.9
				c-1-0.4-2-0.8-3-1.2c-1-0.4-2-0.8-3-1.2c-0.2-0.1-0.5-0.2-0.8-0.3C1370.2,97,1379.3,93.7,1388.4,90.2z"/>
			<path class="st2" d="M1395.6,110.1c-9.1,3.4-18.1,6.8-27.1,10.1c0-0.1,0.1-0.2,0.1-0.3c0.2-0.4,0.5-0.9,0.7-1.3
				c0.3-0.6,0.6-1.2,0.9-1.8c0.2-0.5,0.5-1,0.8-1.5c0.6-1.2,1.2-2.3,1.8-3.5c0.3-0.6,0.6-1.1,0.9-1.7c0.2-0.5,0.5-1,0.7-1.4
				c0.1-0.1,0.1-0.1,0.2-0.1c0.7,0.3,1.4,0.6,2.2,0.9c0.9,0.3,1.8,0.4,2.8,0.1c1.2-0.3,2.1-0.9,2.8-1.9c0.3-0.5,0.6-1,0.8-1.5
				c0.2-0.3,0.3-0.6,0.5-0.9c0-0.1,0.1-0.1,0.2-0.1c0,0,0.1,0,0.1,0c1,0.4,1.9,0.8,2.9,1.2c1.1,0.4,2.1,0.9,3.2,1.3
				c1,0.4,1.9,0.8,2.9,1.2c0.6,0.3,1.2,0.5,1.8,0.7C1395,109.8,1395.3,110,1395.6,110.1z"/>
			<path class="st2" d="M1360,102.8c0.2,0,0.3,0.1,0.4,0.2c0.8,0.3,1.6,0.6,2.4,1c1.1,0.5,2.2,0.9,3.3,1.3c1,0.4,2,0.8,2.9,1.2
				c0.9,0.4,1.8,0.7,2.8,1.1c0.1,0,0.1,0.1,0.1,0.2c-0.1,0.2-0.2,0.5-0.4,0.7c-0.4,0.8-0.8,1.6-1.2,2.4c-0.3,0.6-0.6,1.1-0.8,1.7
				c-0.3,0.6-0.6,1.1-0.9,1.7c-0.5,1.1-1.1,2.2-1.7,3.4c-0.3,0.5-0.5,1-0.8,1.5c0,0.1-0.1,0.1-0.1,0.2
				C1364.1,113.7,1362,108.3,1360,102.8z"/>
			<path class="st2" d="M1396.7,107.8c-0.3-0.1-0.5-0.2-0.7-0.3c-0.5-0.2-1-0.4-1.6-0.6c-1-0.4-1.9-0.8-2.9-1.2
				c-1.1-0.4-2.1-0.9-3.2-1.3c-1-0.4-2.1-0.9-3.1-1.3c-0.1,0-0.2-0.1-0.3-0.1c-0.2,0-0.2-0.1-0.1-0.3c0.8-1.6,1.7-3.1,2.5-4.7
				c0.9-1.8,1.8-3.5,2.7-5.3c0.2-0.4,0.4-0.8,0.6-1.2C1392.7,96.9,1394.7,102.4,1396.7,107.8z"/>
		</g>
	</g>
</g>
<g>
	<path class="st2" d="M339.4,119.3v-2.7c2.2,1.9,6.8,4.1,12.1,4.1c5.7,0,9.9-2.7,9.9-7.2c0-4.9-4.6-6.1-10-7.7
		c-6.2-1.8-10.9-3.4-10.9-9.3c0-4.5,3.7-8.4,11.2-8.4c4,0,7.5,1.1,10.2,2.8v2.5c-2.7-1.9-6.1-3.1-10.1-3.1c-6.2,0-8.9,2.9-8.9,6.1
		c0,4.4,4.4,5.6,9.9,7.2c5.4,1.5,11.1,3.4,11.1,9.8c0,6.2-5.8,9.4-12.1,9.4C346.4,122.9,341.8,121.1,339.4,119.3z"/>
	<path class="st2" d="M371.6,107.9V88.7h2.4v19.2c0,8.1,4.3,12.7,11.1,12.7s11-4.6,11-12.7V88.7h2.4v19.2c0,9.7-5.7,14.9-13.4,14.9
		C377.2,122.9,371.6,117.7,371.6,107.9z"/>
	<path class="st2" d="M407.9,88.7h14.2c6,0,9.5,3.1,9.5,8.1c0,3.6-1.7,6.1-4.6,7.2c4.8,0.7,7.6,4,7.6,9c0,5.6-3.9,9.3-10.8,9.3
		h-15.8V88.7z M421.8,103.3c4.7,0,7.4-2.2,7.4-6.2s-2.7-6.2-7.4-6.2h-11.5v12.4H421.8z M423.3,120.1c5.5,0,8.6-2.6,8.6-7.3
		c0-4.7-3.1-7.3-8.6-7.3h-13v14.6H423.3z"/>
	<path class="st2" d="M439.8,119.3v-2.7c2.2,1.9,6.8,4.1,12.1,4.1c5.7,0,9.9-2.7,9.9-7.2c0-4.9-4.6-6.1-10-7.7
		c-6.2-1.8-10.9-3.4-10.9-9.3c0-4.5,3.7-8.4,11.2-8.4c4,0,7.5,1.1,10.2,2.8v2.5c-2.7-1.9-6.1-3.1-10.1-3.1c-6.2,0-8.9,2.9-8.9,6.1
		c0,4.4,4.4,5.6,9.9,7.2c5.4,1.5,11.1,3.4,11.1,9.8c0,6.2-5.8,9.4-12.1,9.4C446.8,122.9,442.2,121.1,439.8,119.3z"/>
	<path class="st2" d="M470.5,105.5c0-10.1,7.4-17.4,16.9-17.4c3.6,0,6.9,0.9,9.6,2.6v2.5c-2.8-1.8-5.9-2.9-9.6-2.9
		c-8.1,0-14.5,6.3-14.5,15.1c0,8.7,6.4,15.1,14.6,15.1c4,0,7.4-1.2,10.3-3.5v2.6c-2.8,2.1-6.2,3.1-10.4,3.1
		C478,122.9,470.5,115.6,470.5,105.5z"/>
	<path class="st2" d="M505.2,88.7h14.9c6.6,0,10.3,3.6,10.3,8.9c0,4.8-2.9,8.2-8.3,8.8l11,15.9h-2.8l-10.9-15.7h-11.8v15.7h-2.4
		V88.7z M520,104.4c5.1,0,8.1-2.4,8.1-6.8c0-4.3-3-6.7-8.1-6.7h-12.3v13.5H520z"/>
	<path class="st2" d="M540.9,88.7h2.4v33.6h-2.4V88.7z"/>
	<path class="st2" d="M553.6,88.7h14.2c6,0,9.5,3.1,9.5,8.1c0,3.6-1.7,6.1-4.6,7.2c4.8,0.7,7.6,4,7.6,9c0,5.6-3.9,9.3-10.8,9.3
		h-15.8V88.7z M567.4,103.3c4.7,0,7.4-2.2,7.4-6.2s-2.7-6.2-7.4-6.2H556v12.4H567.4z M569,120.1c5.5,0,8.6-2.6,8.6-7.3
		c0-4.7-3.1-7.3-8.6-7.3h-13v14.6H569z"/>
	<path class="st2" d="M588.1,88.7h22.6v2.2h-20.2v12.2h16.7v2.3h-16.7v14.7h20.9v2.2h-23.3V88.7z"/>
	<path class="st2" d="M637.9,90.9h-12v-2.2h26.4v2.2h-12v31.4h-2.4V90.9z"/>
	<path class="st2" d="M655.1,105.5c0-9.9,7.2-17.4,16.8-17.4c9.5,0,16.7,7.4,16.7,17.4c0,10-7.2,17.4-16.7,17.4
		C662.3,122.9,655.1,115.5,655.1,105.5z M686.1,105.5c0-8.7-6.3-15.1-14.3-15.1s-14.3,6.4-14.3,15.1c0,8.7,6.3,15.1,14.3,15.1
		S686.1,114.2,686.1,105.5z"/>
	<path class="st2" d="M708.5,105.5c0-9.9,7.2-17.4,16.8-17.4c9.5,0,16.7,7.4,16.7,17.4c0,10-7.2,17.4-16.7,17.4
		C715.7,122.9,708.5,115.5,708.5,105.5z M739.5,105.5c0-8.7-6.3-15.1-14.3-15.1S711,96.8,711,105.5c0,8.7,6.3,15.1,14.3,15.1
		S739.5,114.2,739.5,105.5z"/>
	<path class="st2" d="M750,107.9V88.7h2.4v19.2c0,8.1,4.3,12.7,11.1,12.7c6.8,0,11-4.6,11-12.7V88.7h2.4v19.2
		c0,9.7-5.7,14.9-13.4,14.9C755.6,122.9,750,117.7,750,107.9z"/>
	<path class="st2" d="M786.4,88.7h14.9c6.6,0,10.3,3.6,10.3,8.9c0,4.8-2.9,8.2-8.3,8.8l11,15.9h-2.8l-10.9-15.7h-11.8v15.7h-2.4
		V88.7z M801.2,104.4c5.1,0,8.1-2.4,8.1-6.8c0-4.3-3-6.7-8.1-6.7h-12.3v13.5H801.2z"/>
	<path class="st2" d="M834.6,88.7h2.1l22.7,29.4V88.7h2.4v33.6h-2.1L837,92.8v29.5h-2.4V88.7z"/>
	<path class="st2" d="M871.8,88.7h22.6v2.2h-20.2v12.2h16.7v2.3h-16.7v14.7h20.9v2.2h-23.3V88.7z"/>
	<path class="st2" d="M899.5,88.7h2.7l10.2,29.8l9-29.9h2l9.1,29.9l10.1-29.8h2.6l-11.7,33.8h-2.2l-9-29.6l-9.2,29.6h-2.1
		L899.5,88.7z"/>
	<path class="st2" d="M949.7,119.3v-2.7c2.2,1.9,6.8,4.1,12.1,4.1c5.7,0,9.9-2.7,9.9-7.2c0-4.9-4.6-6.1-10-7.7
		c-6.2-1.8-10.9-3.4-10.9-9.3c0-4.5,3.7-8.4,11.2-8.4c4,0,7.5,1.1,10.2,2.8v2.5c-2.7-1.9-6.1-3.1-10.1-3.1c-6.2,0-8.9,2.9-8.9,6.1
		c0,4.4,4.4,5.6,9.9,7.2c5.4,1.5,11.1,3.4,11.1,9.8c0,6.2-5.8,9.4-12.1,9.4C956.7,122.9,952.1,121.1,949.7,119.3z"/>
	<path class="st2" d="M982.3,88.7h2.4v31.4h19.4v2.2h-21.8V88.7z"/>
	<path class="st2" d="M1010.8,88.7h22.6v2.2h-20.2v12.2h16.7v2.3h-16.7v14.7h20.9v2.2h-23.3V88.7z"/>
	<path class="st2" d="M1050.1,90.9h-12v-2.2h26.4v2.2h-12v31.4h-2.4V90.9z"/>
	<path class="st2" d="M1079.9,90.9h-12v-2.2h26.4v2.2h-12v31.4h-2.4V90.9z"/>
	<path class="st2" d="M1101,88.7h22.6v2.2h-20.2v12.2h16.7v2.3h-16.7v14.7h20.9v2.2H1101V88.7z"/>
	<path class="st2" d="M1131.6,88.7h14.9c6.6,0,10.3,3.6,10.3,8.9c0,4.8-2.9,8.2-8.3,8.8l11,15.9h-2.8l-10.9-15.7H1134v15.7h-2.4
		V88.7z M1146.3,104.4c5.1,0,8.1-2.4,8.1-6.8c0-4.3-3-6.7-8.1-6.7H1134v13.5H1146.3z"/>
	<path class="st2" d="M1164.2,119.3v-2.7c2.2,1.9,6.8,4.1,12.1,4.1c5.7,0,9.9-2.7,9.9-7.2c0-4.9-4.6-6.1-10-7.7
		c-6.2-1.8-10.9-3.4-10.9-9.3c0-4.5,3.7-8.4,11.2-8.4c4,0,7.5,1.1,10.2,2.8v2.5c-2.7-1.9-6.1-3.1-10.1-3.1c-6.2,0-8.9,2.9-8.9,6.1
		c0,4.4,4.4,5.6,9.9,7.2c5.4,1.5,11.1,3.4,11.1,9.8c0,6.2-5.8,9.4-12.1,9.4C1171.2,122.9,1166.6,121.1,1164.2,119.3z"/>
</g>
</svg>
