<?xml version="1.0" encoding="utf-8"?>
<!-- Generator: Adobe Illustrator 25.2.3, SVG Export Plug-In . SVG Version: 6.00 Build 0)  -->
<svg version="1.1" id="Слой_1" xmlns="http://www.w3.org/2000/svg" xmlns:xlink="http://www.w3.org/1999/xlink" x="0px" y="0px"
	 viewBox="0 0 677 198" style="enable-background:new 0 0 677 198;" xml:space="preserve">
<style type="text/css">
	.st0{fill:#92278F;}
	.st1{fill:#FFFFFF;}
	.st2{fill:none;stroke:#FFFFFF;stroke-width:2;stroke-miterlimit:10;stroke-dasharray:6,4;}
</style>
<polygon class="st0" points="677,198.4 677,-0.2 0,0.4 0,198.4 "/>
<g>
	<path class="st1" d="M259.3,83.7V81c2.2,1.9,6.8,4.1,12.1,4.1c5.7,0,9.9-2.7,9.9-7.2c0-4.9-4.6-6.1-10-7.7
		c-6.2-1.8-10.9-3.4-10.9-9.3c0-4.5,3.7-8.4,11.2-8.4c4,0,7.5,1.1,10.2,2.8v2.5c-2.7-1.9-6.1-3.1-10.1-3.1c-6.2,0-8.9,2.9-8.9,6.1
		c0,4.4,4.4,5.6,9.9,7.2c5.4,1.5,11.1,3.4,11.1,9.8c0,6.2-5.8,9.4-12.1,9.4C266.3,87.3,261.7,85.5,259.3,83.7z"/>
	<path class="st1" d="M291.4,72.4V53.1h2.4v19.3c0,8.1,4.3,12.7,11.1,12.7s11-4.6,11-12.7V53.1h2.4v19.3c0,9.7-5.7,14.9-13.4,14.9
		C297,87.3,291.4,82.1,291.4,72.4z"/>
	<path class="st1" d="M327.8,53.1H342c6,0,9.5,3.1,9.5,8.1c0,3.6-1.7,6.1-4.6,7.2c4.8,0.7,7.6,4,7.6,9c0,5.6-3.9,9.3-10.8,9.3h-15.8
		V53.1z M341.7,67.8c4.7,0,7.4-2.2,7.4-6.2s-2.7-6.2-7.4-6.2h-11.5v12.4H341.7z M343.2,84.5c5.5,0,8.6-2.6,8.6-7.3
		c0-4.7-3.1-7.3-8.6-7.3h-13v14.6H343.2z"/>
	<path class="st1" d="M359.7,83.7V81c2.2,1.9,6.8,4.1,12.1,4.1c5.7,0,9.9-2.7,9.9-7.2c0-4.9-4.6-6.1-10-7.7
		c-6.2-1.8-10.9-3.4-10.9-9.3c0-4.5,3.7-8.4,11.2-8.4c4,0,7.5,1.1,10.2,2.8v2.5c-2.7-1.9-6.1-3.1-10.1-3.1c-6.2,0-8.9,2.9-8.9,6.1
		c0,4.4,4.4,5.6,9.9,7.2c5.4,1.5,11.1,3.4,11.1,9.8c0,6.2-5.8,9.4-12.1,9.4C366.6,87.3,362,85.5,359.7,83.7z"/>
	<path class="st1" d="M390.4,69.9c0-10.1,7.4-17.4,16.9-17.4c3.6,0,6.9,0.9,9.6,2.6v2.5c-2.8-1.8-5.9-2.9-9.6-2.9
		c-8.1,0-14.5,6.3-14.5,15.1S399.3,85,407.4,85c4,0,7.4-1.2,10.3-3.5v2.6c-2.8,2.1-6.2,3.1-10.4,3.1C397.8,87.3,390.4,80,390.4,69.9
		z"/>
	<path class="st1" d="M425.1,53.1H440c6.6,0,10.3,3.6,10.3,8.9c0,4.8-2.9,8.2-8.3,8.8l11,15.9h-2.8L439.3,71h-11.8v15.7h-2.4V53.1z
		 M439.8,68.8c5.1,0,8.1-2.4,8.1-6.8c0-4.3-3-6.7-8.1-6.7h-12.3v13.5H439.8z"/>
	<path class="st1" d="M460.8,53.1h2.4v33.6h-2.4V53.1z"/>
	<path class="st1" d="M473.4,53.1h14.2c6,0,9.5,3.1,9.5,8.1c0,3.6-1.7,6.1-4.6,7.2c4.8,0.7,7.6,4,7.6,9c0,5.6-3.9,9.3-10.8,9.3
		h-15.8V53.1z M487.3,67.8c4.7,0,7.4-2.2,7.4-6.2s-2.7-6.2-7.4-6.2h-11.5v12.4H487.3z M488.8,84.5c5.5,0,8.6-2.6,8.6-7.3
		c0-4.7-3.1-7.3-8.6-7.3h-13v14.6H488.8z"/>
	<path class="st1" d="M508,53.1h22.6v2.2h-20.2v12.2H527v2.3h-16.7v14.7h20.9v2.2H508V53.1z"/>
	<path class="st1" d="M557.7,55.3h-12v-2.2h26.4v2.2h-12v31.4h-2.4V55.3z"/>
	<path class="st1" d="M574.9,69.9c0-9.9,7.2-17.4,16.8-17.4c9.5,0,16.7,7.4,16.7,17.4c0,10-7.2,17.4-16.7,17.4
		C582.1,87.3,574.9,79.9,574.9,69.9z M606,69.9c0-8.7-6.3-15.1-14.3-15.1s-14.3,6.4-14.3,15.1c0,8.7,6.3,15.1,14.3,15.1
		S606,78.6,606,69.9z"/>
	<path class="st1" d="M128.6,127.5c0-9.9,7.2-17.4,16.8-17.4c9.5,0,16.7,7.4,16.7,17.4c0,10-7.2,17.4-16.7,17.4
		C135.8,144.9,128.6,137.5,128.6,127.5z M159.7,127.5c0-8.7-6.3-15.1-14.3-15.1s-14.3,6.4-14.3,15.1c0,8.7,6.3,15.1,14.3,15.1
		S159.7,136.2,159.7,127.5z"/>
	<path class="st1" d="M170.2,130v-19.3h2.4V130c0,8.1,4.3,12.7,11.1,12.7c6.8,0,11-4.6,11-12.7v-19.3h2.4V130
		c0,9.7-5.7,14.9-13.4,14.9C175.8,144.9,170.2,139.7,170.2,130z"/>
	<path class="st1" d="M206.5,110.7h14.9c6.6,0,10.3,3.6,10.3,8.9c0,4.8-2.9,8.2-8.3,8.8l11,15.9h-2.8l-10.9-15.7h-11.8v15.7h-2.4
		V110.7z M221.3,126.4c5.1,0,8.1-2.4,8.1-6.8c0-4.3-3-6.7-8.1-6.7h-12.3v13.5H221.3z"/>
	<path class="st1" d="M254.7,110.7h2.1l22.7,29.4v-29.4h2.4v33.6h-2.1l-22.7-29.5v29.5h-2.4V110.7z"/>
	<path class="st1" d="M291.9,110.7h22.6v2.2h-20.2v12.2H311v2.3h-16.7v14.7h20.9v2.2h-23.3V110.7z"/>
	<path class="st1" d="M319.6,110.7h2.7l10.2,29.8l9-29.9h2l9.1,29.9l10.1-29.8h2.6l-11.7,33.8h-2.2l-9-29.6l-9.2,29.6h-2.1
		L319.6,110.7z"/>
	<path class="st1" d="M369.8,141.3v-2.7c2.2,1.9,6.8,4.1,12.1,4.1c5.7,0,9.9-2.7,9.9-7.2c0-4.9-4.6-6.1-10-7.7
		c-6.2-1.8-10.9-3.4-10.9-9.3c0-4.5,3.7-8.4,11.2-8.4c4,0,7.5,1.1,10.2,2.8v2.5c-2.7-1.9-6.1-3.1-10.1-3.1c-6.2,0-8.9,2.9-8.9,6.1
		c0,4.4,4.4,5.6,9.9,7.2c5.4,1.5,11.1,3.4,11.1,9.8c0,6.2-5.8,9.4-12.1,9.4C376.8,144.9,372.2,143.1,369.8,141.3z"/>
	<path class="st1" d="M402.5,110.7h2.4v31.4h19.4v2.2h-21.8V110.7z"/>
	<path class="st1" d="M430.9,110.7h22.6v2.2h-20.2v12.2H450v2.3h-16.7v14.7h20.9v2.2h-23.3V110.7z"/>
	<path class="st1" d="M470.3,112.9h-12v-2.2h26.4v2.2h-12v31.4h-2.4V112.9z"/>
	<path class="st1" d="M500.1,112.9h-12v-2.2h26.4v2.2h-12v31.4h-2.4V112.9z"/>
	<path class="st1" d="M521.1,110.7h22.6v2.2h-20.2v12.2h16.7v2.3h-16.7v14.7h20.9v2.2h-23.3V110.7z"/>
	<path class="st1" d="M551.7,110.7h14.9c6.6,0,10.3,3.6,10.3,8.9c0,4.8-2.9,8.2-8.3,8.8l11,15.9h-2.8l-10.9-15.7h-11.8v15.7h-2.4
		V110.7z M566.5,126.4c5.1,0,8.1-2.4,8.1-6.8c0-4.3-3-6.7-8.1-6.7h-12.3v13.5H566.5z"/>
	<path class="st1" d="M584.4,141.3v-2.7c2.2,1.9,6.8,4.1,12.1,4.1c5.7,0,9.9-2.7,9.9-7.2c0-4.9-4.6-6.1-10-7.7
		c-6.2-1.8-10.9-3.4-10.9-9.3c0-4.5,3.7-8.4,11.2-8.4c4,0,7.5,1.1,10.2,2.8v2.5c-2.7-1.9-6.1-3.1-10.1-3.1c-6.2,0-8.9,2.9-8.9,6.1
		c0,4.4,4.4,5.6,9.9,7.2c5.4,1.5,11.1,3.4,11.1,9.8c0,6.2-5.8,9.4-12.1,9.4C591.3,144.9,586.7,143.1,584.4,141.3z"/>
</g>
<g>
	<path class="st2" d="M26.9,198c-10.1-5.1-17.4-13.9-25.5-21.5"/>
	<path class="st2" d="M60.3,96.9c-14.8,3.9-37.8,4.9-41.8,23.9c-2,9,3,17,9,23c8,7,16,13,27,16c15,5,30,22,20.2,38"/>
	<g>
		<path d="M69.5,89c-1.5,2.5-2.9,5-4.3,7.4c-0.1,0.2-0.6,0.2-0.9,0.2c-0.1,0-0.3-0.4-0.4-0.6c-3.4-6.9-6.9-13.8-10.2-20.7
			c-0.6-1.3-1.4-2.2-2.5-3c-5-3.4-9.9-7-14.8-10.5c-0.3-0.2-0.5-0.7-0.7-1c0.4-0.2,0.7-0.6,1.1-0.7c7.2-0.7,14.4-1.5,21.6-1.9
			c17.8-0.9,35.4-3.1,52.8-6.8c1.6-0.3,3.1-0.6,4.7-0.8c0.5-0.1,1,0.2,1.4,0.3c-0.2,0.5-0.3,1-0.7,1.4c-1.3,1.3-2.6,2.5-4,3.8
			c-8.3,7.7-14.8,16.8-20.7,26.4c-2.9,4.7-6,9.2-8.9,13.8c-0.6,0.9-1.1,0.9-1.9,0.3c-3.5-2.4-7-4.6-10.6-7
			C70.4,89.5,70.2,89.4,69.5,89z M110.7,52.7c0-0.1,0-0.1,0-0.2c-0.3,0-0.6,0-1,0.1c-3.2,0.5-6.5,1.1-9.7,1.5
			c-8.9,1.3-17.7,2.9-26.6,3.8c-12,1.2-24,1.9-36,2.9c-0.4,0-0.8,0.1-1.4,0.2c0.4,0.3,0.6,0.5,0.8,0.6c5.4,3.8,10.8,7.7,16.3,11.5
			c0.3,0.2,0.9,0.2,1.3,0.1c5.3-1.9,10.5-3.7,15.8-5.7c12.7-4.6,25.4-9.3,38.1-13.9C109.1,53.3,109.9,53,110.7,52.7z M82.3,96.3
			c8.6-14.4,17.1-28.7,29.3-40.4c-0.1-0.1-0.1-0.1-0.2-0.2c-15.8,9.6-31.6,19.2-47.3,28.7C70.2,88.3,76.2,92.3,82.3,96.3z
			 M64.1,93.9c0,0-0.1,0.1-0.1,0.1c0-0.4,0-0.7-0.1-1.1c-0.2-2.1-0.3-4.3-0.7-6.3c-0.3-1.8,0.2-2.7,1.7-3.6
			c11.8-7.1,23.5-14.3,35.3-21.4c4.6-2.8,9.3-5.7,13.9-8.5c0.4-0.2,0.7-0.6,1.1-0.8c0-0.1-0.1-0.1-0.1-0.2c-0.2,0.1-0.3,0.1-0.5,0.2
			c-14.8,5.3-29.5,10.7-44.3,16c-5.5,2-11,3.9-16.6,5.9C57.1,80.7,60.6,87.3,64.1,93.9z"/>
		<path class="st1" d="M110.7,52.7c-0.8,0.3-1.6,0.6-2.4,0.9c-12.7,4.6-25.4,9.3-38.1,13.9c-5.2,1.9-10.5,3.8-15.8,5.7
			c-0.4,0.1-1,0.1-1.3-0.1c-5.4-3.8-10.9-7.7-16.3-11.5c-0.2-0.2-0.4-0.3-0.8-0.6c0.6-0.1,1-0.1,1.4-0.2c12-0.9,24-1.6,36-2.9
			c8.9-0.9,17.8-2.5,26.6-3.8c3.2-0.5,6.5-1,9.7-1.5c0.3,0,0.6-0.1,1-0.1C110.7,52.5,110.7,52.6,110.7,52.7z"/>
		<path class="st1" d="M82.3,96.3c-6.1-4-12.2-8-18.2-11.9c15.7-9.5,31.5-19.1,47.3-28.7c0.1,0.1,0.1,0.1,0.2,0.2
			C99.4,67.6,90.9,81.9,82.3,96.3z"/>
		<path class="st1" d="M64.1,93.9c-3.5-6.6-6.9-13.1-10.5-19.8c5.6-2,11.1-3.9,16.6-5.9c14.8-5.3,29.5-10.7,44.3-16
			c0.2-0.1,0.3-0.1,0.5-0.2c0,0.1,0.1,0.1,0.1,0.2c-0.4,0.3-0.7,0.6-1.1,0.8c-4.6,2.8-9.3,5.7-13.9,8.5C88.4,68.7,76.6,75.9,64.9,83
			c-1.5,0.9-2.1,1.8-1.7,3.6c0.4,2.1,0.5,4.2,0.7,6.3c0,0.4,0,0.7,0.1,1.1C64,93.9,64,93.9,64.1,93.9z"/>
	</g>
</g>
</svg>
