<?xml version="1.0" encoding="utf-8"?>
<!-- Generator: Adobe Illustrator 25.2.3, SVG Export Plug-In . SVG Version: 6.00 Build 0)  -->
<svg version="1.1" id="Слой_1" xmlns="http://www.w3.org/2000/svg" xmlns:xlink="http://www.w3.org/1999/xlink" x="0px" y="0px"
	 viewBox="0 0 1559 198" style="enable-background:new 0 0 1559 198;" xml:space="preserve">
<style type="text/css">
	.st0{fill:#92278F;}
	.st1{fill:#FFFFFF;}
	.st2{fill:none;stroke:#FFFFFF;stroke-width:2;stroke-miterlimit:10;stroke-dasharray:6,4;}
	.st3{fill:none;stroke:#FFFFFF;stroke-width:2;stroke-miterlimit:10;}
	.st4{fill:#FDFCFD;}
	.st5{fill:#CBAABA;}
	.st6{fill:#B872B6;}
	.st7{fill:#CE9ECC;}
	.st8{fill:#FFFFFF;stroke:#000000;stroke-width:0.8913;stroke-miterlimit:10;}
	.st9{fill:#FFFFFF;stroke:#000000;stroke-width:1.2035;stroke-miterlimit:10;}
	.st10{fill:none;stroke:#000000;stroke-width:0.6017;stroke-miterlimit:10;}
	.st11{fill:none;stroke:#000000;stroke-width:1.2035;stroke-miterlimit:10;}
	.st12{fill:#FFFFFF;stroke:#FFFFFF;stroke-width:0.2971;stroke-miterlimit:10;}
	.st13{stroke:#FFFFFF;stroke-width:0.4012;stroke-miterlimit:10;}
	.st14{fill:none;stroke:#FFFFFF;stroke-width:0.8175;stroke-miterlimit:10;}
	.st15{fill:none;stroke:#000000;stroke-width:0.7867;stroke-miterlimit:10;}
	.st16{fill:none;stroke:#000000;stroke-width:1.5734;stroke-miterlimit:10;}
	.st17{fill:#FFFFFF;stroke:#000000;stroke-width:0.5942;stroke-miterlimit:10;}
	.st18{fill:#C9E6EB;}
</style>
<path class="st0" d="M1559,198V0L0,0.6V198H1559z"/>
<g>
	<path class="st1" d="M297,66h17.2v22.4h-1.6V67.5h-14v20.9H297V66z"/>
	<path class="st1" d="M319.9,77.2c0-6.6,4.8-11.6,11.2-11.6c6.3,0,11.1,5,11.1,11.6c0,6.7-4.8,11.6-11.1,11.6
		C324.7,88.8,319.9,83.9,319.9,77.2z M340.6,77.2c0-5.8-4.2-10-9.5-10s-9.5,4.3-9.5,10s4.2,10.1,9.5,10.1S340.6,83,340.6,77.2z"/>
	<path class="st1" d="M343.7,87h2.1c2.8-3.9,4.2-8.2,4.2-18.5V66h13.2v21h3.5v6.6h-1.5v-5.1h-20v5.1h-1.5L343.7,87L343.7,87z
		 M361.6,87V67.5h-10V69c0,8.1-1.1,13.9-4,18H361.6z"/>
	<path class="st1" d="M371.1,66h17.2v22.4h-1.6V67.5h-14v20.9h-1.6V66z"/>
	<path class="st1" d="M395,66h1.6v19.7l15-19.7h1.4v22.4h-1.6V68.7l-15,19.8H395V66z"/>
	<path class="st1" d="M418.7,77.2c0-6.8,4.9-11.6,11.3-11.6c2.4,0,4.6,0.6,6.4,1.8v1.7c-1.9-1.2-3.9-1.9-6.4-1.9
		c-5.4,0-9.7,4.2-9.7,10s4.3,10.1,9.7,10.1c2.7,0,5-0.8,6.8-2.3v1.8c-1.9,1.4-4.2,2.1-6.9,2.1C423.7,88.8,418.7,84,418.7,77.2z"/>
	<path class="st1" d="M449.7,65.9h1.5l10.1,22.5h-1.7l-2.9-6.5h-12.5l-2.9,6.5h-1.7L449.7,65.9z M456.1,80.5L450.5,68l-5.7,12.5
		H456.1z"/>
	<path class="st1" d="M468.3,67.5h-8V66h17.6v1.5h-8v20.9h-1.6V67.5z"/>
	<path class="st1" d="M482.3,66h1.6v8.7h7.3c5,0,7.8,2.8,7.8,6.8c0,4.1-2.8,6.8-7.8,6.8h-8.9V66z M491.1,87c4,0,6.3-2,6.3-5.4
		s-2.3-5.3-6.3-5.3h-7.2V87H491.1z"/>
	<path class="st1" d="M503.1,77.2c0-6.8,4.9-11.6,11.3-11.6c2.4,0,4.6,0.6,6.4,1.8v1.7c-1.9-1.2-3.9-1.9-6.4-1.9
		c-5.4,0-9.7,4.2-9.7,10s4.3,10.1,9.7,10.1c2.7,0,5-0.8,6.8-2.3v1.8c-1.9,1.4-4.2,2.1-6.9,2.1C508,88.8,503.1,84,503.1,77.2z"/>
	<path class="st1" d="M531.8,77.8c-3.6-0.4-5.5-2.7-5.5-5.9c0-3.6,2.4-5.9,6.8-5.9h9.9v22.4h-1.6V78h-7.8l-7.3,10.5h-1.8L531.8,77.8
		z M541.4,76.5v-9h-8.2c-3.4,0-5.4,1.6-5.4,4.5s2,4.5,5.4,4.5H541.4z"/>
	<path class="st1" d="M558.3,66h1.6v9.6h14.4V66h1.6v22.4h-1.6V77.1h-14.4v11.3h-1.6V66z"/>
	<path class="st1" d="M590.5,65.9h1.5l10.1,22.5h-1.7l-2.9-6.5H585l-2.9,6.5h-1.7L590.5,65.9z M596.9,80.5L591.2,68l-5.7,12.5H596.9
		z"/>
	<path class="st1" d="M615,66h9.3c4.5,0,6.9,2.5,6.9,6c0,3.6-2.5,6.1-6.9,6.1h-7.7v10.3H615V66z M624.1,76.7c3.5,0,5.5-1.7,5.5-4.6
		s-2-4.6-5.5-4.6h-7.6v9.2H624.1z"/>
	<path class="st1" d="M641.8,65.9h1.5l10.1,22.5h-1.7l-2.9-6.5h-12.5l-2.9,6.5h-1.7L641.8,65.9z M648.2,80.5L642.5,68l-5.7,12.5
		H648.2z"/>
	<path class="st1" d="M655.2,77.2c0-6.8,4.9-11.6,11.3-11.6c2.4,0,4.6,0.6,6.4,1.8v1.7c-1.9-1.2-3.9-1.9-6.4-1.9
		c-5.4,0-9.7,4.2-9.7,10s4.3,10.1,9.7,10.1c2.7,0,5-0.8,6.8-2.3v1.8c-1.9,1.4-4.2,2.1-6.9,2.1C660.1,88.8,655.2,84,655.2,77.2z"/>
	<path class="st1" d="M676.8,77.2c0-6.8,4.9-11.6,11.3-11.6c2.4,0,4.6,0.6,6.4,1.8v1.7c-1.9-1.2-3.9-1.9-6.4-1.9
		c-5.4,0-9.7,4.2-9.7,10s4.3,10.1,9.7,10.1c2.7,0,5-0.8,6.8-2.3v1.8c-1.9,1.4-4.2,2.1-6.9,2.1C681.8,88.8,676.8,84,676.8,77.2z"/>
	<path class="st1" d="M699.9,66h1.6v8.7h6.5c5,0,7.8,2.8,7.8,6.8c0,4.1-2.8,6.8-7.8,6.8h-8.1V66z M708,87c4,0,6.3-2,6.3-5.4
		s-2.3-5.3-6.3-5.3h-6.4V87H708z M719.6,66h1.6v22.4h-1.6V66z"/>
	<path class="st1" d="M744.4,66v22.4h-1.6V67.5h-10.2l-0.2,5.3c-0.3,9.8-1.2,15.6-6.7,15.6c-0.2,0-0.5,0-0.8,0v-1.5
		c0.3,0,0.6,0,0.9,0c4.3,0,4.8-6.7,5-15.2L731,66H744.4z"/>
	<path class="st1" d="M751,66h1.6v9.9l11.3-9.9h2.2l-11.7,10.3l13.5,12.1h-2.4l-12.9-11.6v11.6H751V66z"/>
	<path class="st1" d="M771.6,66h1.6v19.7l15-19.7h1.4v22.4H788V68.7l-15,19.8h-1.4V66z"/>
	<path class="st1" d="M218.5,119.6v-0.9l5-5.9h1.8l-5.3,6.3l5.3,6.3h-1.8L218.5,119.6z M225.7,119.6v-0.9l5-5.9h1.9l-5.3,6.3
		l5.3,6.3h-1.9L225.7,119.6z"/>
	<path class="st1" d="M237.5,104.4h17.2v22.4H253v-20.9h-14v20.9h-1.6v-22.4H237.5z"/>
	<path class="st1" d="M261.4,104.4h15v1.5H263v8.1h11.1v1.5H263v9.8h14v1.5h-15.6V104.4z"/>
	<path class="st1" d="M281.8,104.4H299v22.4h-1.6v-20.9h-14v20.9h-1.6V104.4z"/>
	<path class="st1" d="M305.7,104.4h15v1.5h-13.4v8.1h11.1v1.5h-11.1v9.8h14v1.5h-15.6V104.4z"/>
	<path class="st1" d="M342.6,104.4v22.4H341v-20.9h-10.2l-0.2,5.3c-0.3,9.8-1.2,15.6-6.7,15.6c-0.2,0-0.5,0-0.8,0v-1.5
		c0.3,0,0.6,0,0.9,0c4.3,0,4.8-6.7,5-15.2l0.1-5.8L342.6,104.4L342.6,104.4z"/>
	<path class="st1" d="M354.9,116.2c-3.6-0.4-5.5-2.7-5.5-5.9c0-3.6,2.4-5.9,6.8-5.9h9.9v22.4h-1.6v-10.5h-7.8l-7.3,10.5h-1.8
		L354.9,116.2z M364.6,114.9v-9h-8.2c-3.4,0-5.4,1.6-5.4,4.5s2,4.5,5.4,4.5H364.6z"/>
	<path class="st1" d="M372.9,104.4h15v1.5h-13.4v8.1h11.1v1.5h-11.1v9.8h14v1.5h-15.6V104.4z"/>
	<path class="st1" d="M393.3,104.4h9.4c4,0,6.3,2.1,6.3,5.4c0,2.4-1.2,4.1-3.1,4.8c3.2,0.5,5.1,2.7,5.1,6c0,3.7-2.6,6.2-7.2,6.2
		h-10.5L393.3,104.4L393.3,104.4z M402.5,114.2c3.1,0,4.9-1.5,4.9-4.1c0-2.7-1.8-4.2-4.9-4.2h-7.6v8.3
		C394.9,114.2,402.5,114.2,402.5,114.2z M403.6,125.4c3.7,0,5.8-1.8,5.8-4.9s-2.1-4.9-5.8-4.9h-8.7v9.8H403.6z"/>
	<path class="st1" d="M424.9,104.4h14.6v1.5h-13v20.9h-1.6V104.4z"/>
	<path class="st1" d="M444.1,104.4h9.3c4.5,0,6.9,2.5,6.9,6s-2.5,6.1-6.9,6.1h-7.7v10.3h-1.6L444.1,104.4L444.1,104.4z M453.3,115.1
		c3.5,0,5.5-1.7,5.5-4.6s-2-4.6-5.5-4.6h-7.6v9.2H453.3z"/>
	<path class="st1" d="M464.8,126.8v-1.5c0.8,0.3,1.7,0.4,2.3,0.4c2.1,0,3.3-1.7,4.4-4.2l0.4-0.8l-9.1-16.3h1.8l8.1,14.6l6.7-14.6
		h1.8l-8.3,17.7c-1.8,3.8-3.4,5.1-5.6,5.1C466.4,127.2,465.6,127.1,464.8,126.8z"/>
	<path class="st1" d="M485.6,104.4h17.2v22.4h-1.6v-20.9h-14v20.9h-1.6V104.4z"/>
	<path class="st1" d="M509.5,104.4h17.2v22.4h-1.6v-20.9h-14v20.9h-1.6L509.5,104.4L509.5,104.4z"/>
	<path class="st1" d="M533.5,125.5h-1.8l5.3-6.3l-5.3-6.3h1.8l5,5.9v0.9L533.5,125.5z M540.7,125.5h-1.8l5.3-6.3l-5.3-6.3h1.8l5,5.9
		v0.9L540.7,125.5z"/>
	<path class="st1" d="M556.5,125.4h2.1c2.8-3.9,4.2-8.2,4.2-18.5v-2.4H576v20.9h3.5v6.6H578v-5.1h-20v5.1h-1.5V125.4z M574.4,125.4
		v-19.5h-10v1.5c0,8.1-1.1,13.9-4,18H574.4z"/>
	<path class="st1" d="M600.5,104.4v22.4h-1.6v-20.9h-10.2l-0.2,5.3c-0.3,9.8-1.2,15.6-6.7,15.6c-0.2,0-0.5,0-0.8,0v-1.5
		c0.3,0,0.6,0,0.9,0c4.3,0,4.8-6.7,5-15.2l0.1-5.8L600.5,104.4L600.5,104.4z"/>
	<path class="st1" d="M612.8,116.2c-3.6-0.4-5.5-2.7-5.5-5.9c0-3.6,2.4-5.9,6.8-5.9h9.9v22.4h-1.6v-10.5h-7.8l-7.3,10.5h-1.8
		L612.8,116.2z M622.4,114.9v-9h-8.2c-3.4,0-5.4,1.6-5.4,4.5s2,4.5,5.4,4.5H622.4z"/>
	<path class="st1" d="M639.3,104.4h15v1.5h-13.4v7.3h7.4c5,0,7.8,2.8,7.8,6.8s-2.8,6.8-7.8,6.8h-9V104.4z M648.2,125.4
		c4,0,6.3-1.9,6.3-5.3s-2.3-5.3-6.3-5.3h-7.3v10.7L648.2,125.4L648.2,125.4z"/>
	<path class="st1" d="M661.7,104.4h1.6v19.7l15-19.7h1.4v22.4h-1.6V107l-15,19.8h-1.4V104.4z"/>
	<path class="st1" d="M684.6,125.6v-1.7c1.8,1,4.5,1.8,7.1,1.8c4.6,0,7.5-2.1,7.5-5.3c0-2.8-2.6-5.1-6.7-5.1h-2.8v-1.5h2.9
		c3.4,0,5.5-1.6,5.5-4.2c0-2.7-2.6-4.1-5.9-4.1c-2.6,0-4.8,0.7-6.5,1.5v-1.6c1.6-0.7,3.6-1.4,6.6-1.4c4.2,0,7.4,2,7.4,5.6
		c0,3.1-2.5,4.5-4,4.9c2.1,0.5,5.1,2.3,5.1,6c0,3.8-3.3,6.7-8.8,6.7C688.6,127.2,686.4,126.5,684.6,125.6z"/>
	<path class="st1" d="M706.1,104.4h1.6v9.6h14.4v-9.6h1.6v22.4h-1.6v-11.3h-14.4v11.3h-1.6V104.4z"/>
	<path class="st1" d="M730.5,104.4h15v1.5h-13.4v8.1h11.1v1.5h-11.1v9.8h14v1.5h-15.6V104.4z"/>
	<path class="st1" d="M749.3,115.6c0-6.8,4.9-11.6,11.3-11.6c2.4,0,4.6,0.6,6.4,1.8v1.7c-1.9-1.2-3.9-1.9-6.4-1.9
		c-5.4,0-9.7,4.2-9.7,10s4.3,10.1,9.7,10.1c2.7,0,5-0.8,6.8-2.3v1.8c-1.9,1.4-4.2,2.1-6.9,2.1C754.2,127.2,749.3,122.4,749.3,115.6z
		"/>
	<path class="st1" d="M780.3,104.3h1.5l10.1,22.5h-1.7l-2.9-6.5h-12.5l-2.9,6.5h-1.7L780.3,104.3z M786.7,118.9l-5.7-12.5l-5.7,12.5
		H786.7z"/>
</g>
<g>
	<path class="st2" d="M159.4,198.2C145,191,137,177,124,169c-6-4-15-5-20,1c-1,11-5,25-17.1,28.1"/>
	<path class="st2" d="M192.8,97.1C178,101,155,102,151,121c-2,9,3,17,9,23c8,7,16,13,27,16c15,5,30,22,20.2,38"/>
	<path class="st2" d="M0.7,187.6c16.1-2.7,31.1-10.3,44.8-18.9"/>
	<g>
		<path d="M202,89.2c-1.5,2.5-2.9,5-4.3,7.4c-0.1,0.2-0.6,0.2-0.9,0.2c-0.1,0-0.3-0.4-0.4-0.6c-3.4-6.9-6.9-13.8-10.2-20.7
			c-0.6-1.3-1.4-2.2-2.5-3c-5-3.4-9.9-7-14.8-10.5c-0.3-0.2-0.5-0.7-0.7-1c0.4-0.2,0.7-0.6,1.1-0.7c7.2-0.7,14.4-1.5,21.6-1.9
			c17.8-0.9,35.4-3.1,52.8-6.8c1.6-0.3,3.1-0.6,4.7-0.8c0.5-0.1,1,0.2,1.4,0.3c-0.2,0.5-0.3,1-0.7,1.4c-1.3,1.3-2.6,2.5-4,3.8
			c-8.3,7.7-14.8,16.8-20.7,26.4c-2.9,4.7-6,9.2-8.9,13.8c-0.6,0.9-1.1,0.9-1.9,0.3c-3.5-2.4-7-4.6-10.6-7
			C202.9,89.7,202.7,89.6,202,89.2z M243.2,52.9c0-0.1,0-0.1,0-0.2c-0.3,0-0.6,0-1,0.1c-3.2,0.5-6.5,1.1-9.7,1.5
			c-8.9,1.3-17.7,2.9-26.6,3.8c-12,1.2-24,1.9-36,2.9c-0.4,0-0.8,0.1-1.4,0.2c0.4,0.3,0.6,0.5,0.8,0.6c5.4,3.8,10.8,7.7,16.3,11.5
			c0.3,0.2,0.9,0.2,1.3,0.1c5.3-1.9,10.5-3.7,15.8-5.7c12.7-4.6,25.4-9.3,38.1-13.9C241.6,53.5,242.4,53.2,243.2,52.9z M214.8,96.5
			c8.6-14.4,17.1-28.7,29.3-40.4c-0.1-0.1-0.1-0.1-0.2-0.2c-15.8,9.6-31.6,19.2-47.3,28.7C202.7,88.5,208.7,92.5,214.8,96.5z
			 M196.6,94.1l-0.1,0.1c0-0.4,0-0.7-0.1-1.1c-0.2-2.1-0.3-4.3-0.7-6.3c-0.3-1.8,0.2-2.7,1.7-3.6c11.8-7.1,23.5-14.3,35.3-21.4
			c4.6-2.8,9.3-5.7,13.9-8.5c0.4-0.2,0.7-0.6,1.1-0.8c0-0.1-0.1-0.1-0.1-0.2c-0.2,0.1-0.3,0.1-0.5,0.2c-14.8,5.3-29.5,10.7-44.3,16
			c-5.5,2-11,3.9-16.6,5.9C189.6,80.9,193.1,87.5,196.6,94.1z"/>
		<path class="st1" d="M243.2,52.9c-0.8,0.3-1.6,0.6-2.4,0.9c-12.7,4.6-25.4,9.3-38.1,13.9c-5.2,1.9-10.5,3.8-15.8,5.7
			c-0.4,0.1-1,0.1-1.3-0.1c-5.4-3.8-10.9-7.7-16.3-11.5c-0.2-0.2-0.4-0.3-0.8-0.6c0.6-0.1,1-0.1,1.4-0.2c12-0.9,24-1.6,36-2.9
			c8.9-0.9,17.8-2.5,26.6-3.8c3.2-0.5,6.5-1,9.7-1.5c0.3,0,0.6-0.1,1-0.1C243.2,52.7,243.2,52.8,243.2,52.9z"/>
		<path class="st1" d="M214.8,96.5c-6.1-4-12.2-8-18.2-11.9c15.7-9.5,31.5-19.1,47.3-28.7c0.1,0.1,0.1,0.1,0.2,0.2
			C231.9,67.8,223.4,82.1,214.8,96.5z"/>
		<path class="st1" d="M196.6,94.1c-3.5-6.6-6.9-13.1-10.5-19.8c5.6-2,11.1-3.9,16.6-5.9c14.8-5.3,29.5-10.7,44.3-16
			c0.2-0.1,0.3-0.1,0.5-0.2c0,0.1,0.1,0.1,0.1,0.2c-0.4,0.3-0.7,0.6-1.1,0.8c-4.6,2.8-9.3,5.7-13.9,8.5
			c-11.8,7.2-23.5,14.3-35.3,21.4c-1.5,0.9-2.1,1.8-1.7,3.6c0.4,2.1,0.5,4.2,0.7,6.3c0,0.4,0,0.7,0.1,1.1
			C196.5,94.1,196.5,94.1,196.6,94.1z"/>
	</g>
	<g>
		<path d="M59.2,156.5c-2.6,3.6-5.1,7.1-7.7,10.5c-0.2,0.3-0.9,0.2-1.3,0.1c-0.2-0.1-0.3-0.6-0.4-0.9c-4.1-11-8.4-21.9-12.3-32.9
			c-0.7-2-1.7-3.5-3.4-4.9c-7-5.9-13.9-12-20.7-18.1c-0.4-0.4-0.6-1.1-0.9-1.7c0.6-0.3,1.2-0.8,1.8-0.8c11,0.1,21.9-0.1,32.8,0.4
			c27,1.3,53.8,0.8,80.7-2.2c2.4-0.3,4.8-0.4,7.2-0.5c0.7,0,1.4,0.4,2.1,0.6c-0.4,0.7-0.7,1.5-1.2,2c-2.1,1.8-4.4,3.4-6.6,5.1
			c-13.7,10.3-24.9,23.1-35.2,36.7c-5,6.6-10.4,13-15.5,19.5c-1,1.3-1.7,1.2-2.9,0.2c-4.9-4.1-9.9-8.1-14.9-12.1
			C60.4,157.4,60.1,157.2,59.2,156.5z M126.9,107.9c0-0.1,0-0.2,0-0.3c-0.5,0-1-0.1-1.5,0c-5,0.3-9.9,0.6-14.9,0.8
			c-13.6,0.6-27.2,1.7-40.8,1.7c-18.3,0-36.5-0.7-54.8-1.1c-0.6,0-1.2,0-2.1,0c0.6,0.5,0.8,0.8,1.1,1c7.6,6.6,15.2,13.3,22.8,19.9
			c0.4,0.4,1.4,0.5,2,0.3c8.2-2,16.5-4.1,24.7-6.1c19.9-5.1,39.8-10.1,59.7-15.2C124.3,108.6,125.6,108.2,126.9,107.9z M77.4,169.4
			c15.1-20.4,30.2-40.7,50.4-56.5c-0.1-0.1-0.2-0.2-0.3-0.4c-25.3,12.1-50.6,24.1-75.8,36.1C60.2,155.6,68.8,162.5,77.4,169.4z
			 M50.2,163c-0.1,0-0.1,0.1-0.2,0.1c0-0.6,0.1-1.1,0.1-1.7c0-3.2,0.2-6.5-0.1-9.7c-0.3-2.7,0.7-4,3.1-5.2c18.9-8.9,37.7-18,56.5-27
			c7.4-3.6,14.9-7.1,22.3-10.7c0.6-0.3,1.2-0.7,1.8-1.1c-0.1-0.1-0.1-0.2-0.2-0.3c-0.3,0.1-0.5,0.1-0.8,0.2
			c-23.1,5.8-46.2,11.6-69.3,17.4c-8.6,2.1-17.2,4.2-26,6.4C41.7,142.2,45.9,152.6,50.2,163z"/>
		<path class="st1" d="M126.9,107.9c-1.3,0.3-2.5,0.7-3.8,1c-19.9,5.1-39.8,10.1-59.7,15.2c-8.2,2.1-16.4,4.1-24.7,6.1
			c-0.6,0.1-1.5,0-2-0.3c-7.6-6.6-15.2-13.2-22.8-19.9c-0.3-0.3-0.6-0.5-1.1-1c0.9,0,1.5,0,2.1,0c18.3,0.4,36.5,1.2,54.8,1.1
			c13.6,0,27.2-1.1,40.8-1.7c5-0.2,9.9-0.6,14.9-0.8c0.5,0,1,0,1.5,0C126.8,107.7,126.9,107.8,126.9,107.9z"/>
		<path class="st1" d="M77.4,169.4c-8.6-6.9-17.2-13.9-25.7-20.8c25.2-12,50.5-24,75.8-36.1c0.1,0.1,0.2,0.2,0.3,0.4
			C107.6,128.7,92.5,149,77.4,169.4z"/>
		<path class="st1" d="M50.2,163c-4.2-10.4-8.5-20.9-12.8-31.5c8.8-2.1,17.4-4.2,26-6.4c23.1-5.8,46.2-11.6,69.3-17.4
			c0.3-0.1,0.5-0.1,0.8-0.2c0.1,0.1,0.1,0.2,0.2,0.3c-0.6,0.4-1.2,0.8-1.8,1.1c-7.4,3.6-14.9,7.2-22.3,10.7
			c-18.8,9-37.6,18.1-56.5,27c-2.4,1.1-3.4,2.4-3.1,5.2c0.3,3.2,0.1,6.5,0.1,9.7c0,0.6,0,1.1-0.1,1.7C50,163.1,50.1,163.1,50.2,163z
			"/>
	</g>
</g>
<g>
	<path class="st3" d="M1294.3,142.6H830.9c-5.7,0-10.3-4.6-10.3-10.3V65.6c0-5.7,4.6-10.3,10.3-10.3h463.4c5.7,0,10.3,4.6,10.3,10.3
		v66.6C1304.6,137.9,1300,142.6,1294.3,142.6z"/>
	<g>
		<path class="st4" d="M881.5,123.1c-8.5,0-17.1,0-25.6,0c-0.3,0-0.4-0.1-0.4-0.4c0-10.6,0-21.3,0-31.9c0-0.3,0.1-0.4,0.4-0.4
			c0.8,0,1.6,0,2.4,0c0.3,0,0.5,0.1,0.7,0.2c0.6,0.5,1.2,0.9,1.8,1.4c0.1,0.1,0.2,0.2,0.4,0.1c0.1-0.1,0.1-0.2,0.1-0.3
			c0-5.5,0-11.1,0-16.6c0-0.1,0-0.2,0-0.3c-0.1-0.3,0.1-0.4,0.3-0.3c0.4,0.1,0.9,0,1.3,0c9.1,0,18.1,0,27.2,0c0.4,0,0.7,0,1.1,0
			c0.2,0,0.3,0.1,0.4,0.2c0.9,1.1,2,1.9,2.9,2.9c0.8,0.8,1.5,1.6,2.3,2.3c1.2,1.1,2.3,2.4,3.6,3.6c0.4,0.4,0.8,0.8,1.2,1.2
			c0.2,0.2,0.2,0.3,0.2,0.5c0,2.2,0,4.4,0,6.7c0,0.1,0,0.2,0,0.3c0,0.2,0.1,0.2,0.2,0.1c0.6-0.5,1.3-0.9,1.9-1.4
			c0.2-0.2,0.5-0.4,0.7-0.6c0.1-0.1,0.2-0.1,0.3-0.1c0.8,0,1.6,0,2.4,0c0.3,0,0.3,0.1,0.3,0.3c0,0.5,0,1.1,0,1.6
			c0,10.1,0,20.2,0,30.3c0,0.4,0,0.4-0.4,0.4C898.5,123.1,890,123.1,881.5,123.1z M874.2,102.2L874.2,102.2
			C874.3,102.3,874.3,102.3,874.2,102.2c0.4,0.4,0.8,0.7,1.1,0.9l0,0c0.1,0.2,0.3,0.3,0.5,0.4l0,0c0,0,0,0.1,0.1,0.1l0,0
			c0.2,0.3,0.4,0.4,0.7,0.5l0,0l0,0l0,0c0,0.1,0.1,0.2,0.2,0.1c0,0,0,0,0.1,0c0.2,0.2,0.4,0.4,0.7,0.5l0,0l0,0l0,0
			c0.1,0.2,0.3,0.3,0.6,0.4l0,0c0,0,0,0,0.1,0l0,0c0.1,0.2,0.2,0.2,0.3,0.3l0,0c0,0.1,0.1,0.2,0.2,0.1l0,0c0.2,0.3,0.5,0.4,0.7,0.6
			l0,0c0,0.1,0.1,0.2,0.2,0.1l0,0c0.1,0.2,0.3,0.3,0.5,0.4l0,0c0,0.1,0.1,0.2,0.3,0.2l0,0l0,0l0,0c0.6,0.6,0.6,0.6,1.1,0.1
			c0,0,0,0,0.1,0c0.2,0,0.2-0.1,0.3-0.3l0,0c0.2,0,0.3-0.2,0.5-0.3c0.5-0.4,1.1-0.7,1.6-1.2l0,0c0.1,0,0.1,0,0.1-0.1l0,0
			c0.1-0.1,0.3-0.1,0.3-0.3l0,0c0.2-0.1,0.4-0.2,0.5-0.4l0,0c0.4-0.2,0.7-0.4,1-0.7l0,0c0,0,0,0,0.1-0.1l0,0c0,0,0,0,0.1,0l0,0
			c0.2-0.1,0.4-0.2,0.6-0.4l0,0l0,0l0,0c0.1,0,0.2-0.1,0.3-0.2l0,0c0.2-0.1,0.3-0.2,0.4-0.3l0,0c0,0,0.1,0,0.1-0.1l0,0
			c0.2-0.1,0.4-0.2,0.5-0.4l0,0c0,0,0,0,0.1-0.1l0,0c0.4-0.2,0.7-0.4,1-0.7l0,0c0,0,0,0,0.1-0.1l0,0c0,0,0,0,0.1,0l0,0l0,0l0,0
			c0.1,0,0.2-0.1,0.3-0.2l0,0c0.1,0,0.2-0.1,0.2-0.2l0,0l0,0l0,0c0.1,0,0.1,0,0.1-0.1l0,0c0.4-0.2,0.7-0.4,1-0.8l0,0
			c0,0,0.1,0,0.1-0.1l0,0c0.2-0.1,0.4-0.2,0.5-0.4l0,0c0,0,0.1,0,0.1-0.1l0,0c0,0,0,0,0.1,0l0,0l0,0l0,0c0.2,0,0.3-0.2,0.4-0.3l0,0
			c0.2,0,0.3-0.1,0.4-0.3l0,0c0.1,0,0.2-0.1,0.2-0.2l0,0c0.2-0.1,0.4-0.2,0.5-0.4l0,0l0,0l0,0c0.5-0.2,0.8-0.6,1.2-0.8
			c0.2-0.1,0.4-0.2,0.6-0.5l0,0c0,0,0.1,0,0.1-0.1l0,0c0.2-0.1,0.3-0.2,0.4-0.3l0,0c0,0,0.1,0,0.1-0.1l0,0c0.1,0,0.1,0,0.1-0.1l0,0
			l0,0l0,0c0.3-0.1,0.5-0.3,0.7-0.5l0,0c0,0,0.1,0,0.1-0.1l0,0c0.5-0.2,0.8-0.6,1.2-0.9v-0.2c0-2.6,0-5.3,0-7.9
			c0-0.2-0.1-0.4-0.2-0.5c-0.6-0.6-1.2-1.2-1.8-1.8c-1.3-1.2-2.5-2.5-3.8-3.7c-0.9-0.9-1.9-1.8-2.8-2.7c-0.2-0.2-0.3-0.2-0.5-0.2
			c-1.7,0-3.3,0-5,0c-6.6,0-13.3,0-19.9,0c-0.3,0-0.4,0.1-0.4,0.4c0,1.1,0,2.2,0,3.3c0,4.3,0,8.6,0,12.8c0,0.2,0.1,0.4,0.3,0.5
			c1.4,1,2.7,2.1,4.1,3.1c1.1,0.8,2.2,1.7,3.4,2.5c0.3,0.3,0.6,0.6,1.1,0.7c0,0,0,0,0,0.1c0.1,0.2,0.3,0.3,0.6,0.4l0,0
			C873.7,101.9,873.9,102,874.2,102.2L874.2,102.2C874.1,102.1,874.2,102.1,874.2,102.2L874.2,102.2z M881.5,120.2
			c7.5,0,15,0,22.5,0c0.6,0,0.6,0,0.6-0.6c0-8,0-16.1,0-24.1c0-0.3,0-0.5,0-0.8c0-0.1,0-0.2-0.1-0.3c-0.1,0-0.2,0-0.3,0.1
			c-0.4,0.3-0.9,0.6-1.3,1c-2.1,1.6-4.2,3.1-6.3,4.7c-1.2,0.9-2.3,1.7-3.5,2.6c-0.7,0.5-1.4,1.1-2.2,1.6c-1.3,0.9-2.5,1.9-3.8,2.8
			c-1.6,1.2-3.3,2.5-4.9,3.7c-0.3,0.2-0.5,0.5-0.8,0.5s-0.5-0.3-0.8-0.5c-1.3-1-2.6-2-4-3c-1.2-0.9-2.4-1.8-3.6-2.7
			c-0.8-0.6-1.6-1.2-2.4-1.8c-1.1-0.9-2.3-1.7-3.4-2.6c-1.3-1-2.6-2-4-3c-1.2-0.9-2.4-1.8-3.6-2.7c-0.3-0.3-0.7-0.5-1.1-0.8
			c-0.2-0.1-0.3-0.1-0.3,0.1c0,0.1,0,0.1,0,0.2c0,8.3,0,16.6,0,24.9c0,0.5,0,0.5,0.5,0.5C866.5,120.2,874,120.2,881.5,120.2z"/>
		<path class="st4" d="M881.5,88.8c3.9,0,7.8,0,11.8,0c0.5,0,0.5,0,0.5,0.5c0,0.8,0,1.5,0,2.3c0,0.2-0.1,0.3-0.3,0.3
			c-1.5-0.1-3,0-4.6,0c-6.2,0.1-12.4,0-18.6,0c-0.3,0-0.5,0-0.8,0c-0.2,0-0.3-0.1-0.3-0.3c0-0.8,0-1.7,0-2.5c0-0.3,0.1-0.3,0.4-0.3
			c3.5,0,6.9,0,10.4,0C880.5,88.8,881,88.8,881.5,88.8z"/>
		<path class="st4" d="M881.5,98c-3.9,0-7.9,0-11.8,0c-0.3,0-0.4-0.1-0.4-0.4c0-0.8,0-1.5,0-2.3c0-0.3,0.1-0.4,0.4-0.4
			c6.9,0,13.8,0,20.7,0c1,0,2.1,0,3.1,0c0.3,0,0.4,0.1,0.4,0.4c0,0.8-0.1,1.6-0.1,2.5c0,0.3-0.2,0.2-0.3,0.2c-2,0-3.9,0-5.9,0
			C885.5,98,883.5,98,881.5,98z"/>
	</g>
	<g>
		<path class="st1" d="M930.5,97.6c0-5.3,3.9-9.4,9.3-9.4s9.3,4.1,9.3,9.4s-4,9.4-9.3,9.4S930.5,102.9,930.5,97.6z M946.2,97.6
			c0-3.9-2.8-6.8-6.4-6.8c-3.6,0-6.3,2.9-6.3,6.8s2.8,6.8,6.3,6.8C943.4,104.3,946.2,101.5,946.2,97.6z"/>
		<path class="st1" d="M959,106.9c-4.6-0.2-7.2-2.9-7.2-6.6s2.6-6.3,7.2-6.6v-5.2h2.8v5.2c4.6,0.3,7.2,2.8,7.2,6.6
			c0,3.7-2.6,6.4-7.2,6.6v5H959V106.9z M959,104.5V96c-2.6,0-4.5,1.7-4.5,4.2C954.6,102.8,956.4,104.5,959,104.5z M961.8,96.1v8.5
			c2.6,0,4.5-1.7,4.5-4.2C966.3,97.7,964.5,96.1,961.8,96.1z"/>
		<path class="st1" d="M971.3,100.3c0-3.7,2.9-6.7,7-6.7s7,3,7,6.7s-2.9,6.7-7,6.7C974.1,107,971.3,104,971.3,100.3z M982.5,100.3
			c0-2.4-1.8-4.2-4.2-4.2s-4.2,1.9-4.2,4.2c0,2.4,1.8,4.3,4.2,4.3S982.5,102.7,982.5,100.3z"/>
		<path class="st1" d="M1001.9,100.3c0,3.7-2.5,6.7-6.2,6.7c-2.2,0-3.7-1-4.6-2.1v6.9h-2.8V93.9h2.8v1.7c0.8-1.1,2.3-2.1,4.6-2.1
			C999.4,93.6,1001.9,96.6,1001.9,100.3z M991.2,98.3v4c0.7,1.2,2.1,2.3,3.8,2.3c2.4,0,4.1-1.9,4.1-4.2c0-2.4-1.7-4.3-4.1-4.3
			C993.3,96.1,991.8,97.1,991.2,98.3z"/>
		<path class="st1" d="M1005.1,93.9h2.8l4.4,5.3l4.4-5.3h2.8v12.8h-2.7v-8.9l-3.9,4.7h-1.1l-3.9-4.7v8.9h-2.7L1005.1,93.9
			L1005.1,93.9z"/>
		<path class="st1" d="M1023.4,93.9h2.8v8.7l6.9-8.7h2.6v12.8h-2.8V98l-6.9,8.7h-2.6V93.9z"/>
		<path class="st1" d="M1042.5,96.4h-4.3v-2.5h11.4v2.5h-4.3v10.3h-2.8L1042.5,96.4L1042.5,96.4z"/>
		<path class="st1" d="M1052.2,93.9h2.8v3.9h3.7c3.1,0,5.1,1.8,5.1,4.4c0,2.5-1.7,4.4-5,4.4h-6.6V93.9z M1058.4,104.3
			c1.6,0,2.6-0.8,2.6-2.1c0-1.3-1-2.1-2.6-2.1h-3.4v4.2H1058.4z"/>
		<path class="st1" d="M1073.7,93.9h11.9v12.8h-2.8V96.4h-6.3v10.3h-2.8L1073.7,93.9L1073.7,93.9z"/>
		<path class="st1" d="M1088.8,100.3c0-3.7,2.9-6.7,7-6.7s7,3,7,6.7s-2.9,6.7-7,6.7C1091.6,107,1088.8,104,1088.8,100.3z
			 M1100,100.3c0-2.4-1.8-4.2-4.2-4.2s-4.2,1.9-4.2,4.2c0,2.4,1.8,4.3,4.2,4.3S1100,102.7,1100,100.3z"/>
		<path class="st1" d="M1104.1,104.2h1.7c1.4-2,1.8-4.7,1.8-10.3h10.2v10.3h2.2v6h-2.7v-3.5h-10.5v3.5h-2.7V104.2z M1115,104.2v-7.8
			h-4.8c0,3.6-0.6,6.1-1.5,7.8H1115z"/>
		<path class="st1" d="M1122.8,93.9h11.9v12.8h-2.8V96.4h-6.3v10.3h-2.8L1122.8,93.9L1122.8,93.9z"/>
		<path class="st1" d="M1138.7,93.9h2.8v8.7l6.9-8.7h2.6v12.8h-2.8V98l-6.9,8.7h-2.6V93.9z"/>
		<path class="st1" d="M1154.2,100.3c0-4,3.2-6.7,6.9-6.7c1.6,0,2.7,0.3,3.8,0.9v2.4c-1.1-0.5-2.2-0.8-3.4-0.8
			c-2.5,0-4.5,1.7-4.5,4.2s2,4.3,4.5,4.3c1.4,0,2.5-0.3,3.6-1v2.4c-1.2,0.7-2.4,1-4.1,1C1157.4,107,1154.2,104.3,1154.2,100.3z"/>
		<path class="st1" d="M1168.6,93.9h2.8v4.8l5-4.8h3.6l-6.1,5.7l7,7h-3.8l-5.7-5.8v5.8h-2.8V93.9z"/>
		<path class="st1" d="M1182.2,111.6v-2.5c0.6,0.3,1.1,0.4,1.8,0.4c1.5,0,2.4-1.1,3.3-3.3l-5.6-12.3h3.1l3.8,9l3.7-9h3l-6.1,14.1
			c-1.1,2.5-2.6,4-4.9,4C1183.6,112,1182.7,111.9,1182.2,111.6z"/>
	</g>
	<g>
		<path class="st5" d="M1212.8,122.8C1212.8,122.7,1212.7,122.7,1212.8,122.8C1212.8,122.7,1212.8,122.7,1212.8,122.8z"/>
		<path class="st5" d="M1212.8,122.8L1212.8,122.8C1212.8,122.8,1212.9,122.8,1212.8,122.8z"/>
		<path d="M1178.6,163.2c-0.1,0.9-0.4,1.9-0.8,2.7c-3.1,6.9-4.6,14.1-3.6,21.8c0.5,3.7,1.5,7.1,3.3,10.3h5.5
			c-2.6-3.5-4-7.7-4.4-12.2c-0.1-0.9-0.1-1.7-0.2-2.6c0.1-5.5,1.4-10.7,3.8-15.7c0.6-1.3,0.9-2.6,1-4c0.3-4.2,0.7-8.4,1-12.6
			c0.4-7.2-0.7-14.2-3.1-21c-0.5-1.4-0.6-2.8,0.1-4.2c0.7-1.3,1.8-1.9,3.3-1.8c2.1,0.3,3.8,1.2,5.4,2.5c3.8,3.1,6.4,7,7.5,11.9
			c0.3,1.3,0.3,2.7,0.5,4c0.1,1,0.6,1.8,1.6,2.1s1.7,0,2.5-0.7c6.9-6.9,13.8-13.8,20.8-20.8c7.8-7.8,15.6-15.6,23.4-23.4
			c2.6-2.6,6.6-2.5,9.4,0.3c2.6,2.6,2.7,6.6,0.2,9.2c-2.1,2.1-4.2,4.2-6.3,6.4c-2.1,2.1-4.2,4.3-6.4,6.5c-4.5,4.5-9,8.9-13.5,13.4
			c-4.1,4-8.1,8.1-12.2,12.2c-1.1,1.1-1.3,2.5-0.3,3.5c1.1,1.1,2.4,1.2,3.6,0c4.5-4.5,9-9,13.5-13.5c1.5-1.5,3.1-3,4.6-4.6
			c1.8-1.8,4-2.4,6.4-1.6c2.6,0.9,4.2,2.7,4.7,5.4c0.4,2.1-0.3,3.9-1.8,5.4c-6.1,6-12.1,12.1-18.2,18.2c-1.1,1.1-1.1,2.4,0,3.5
			s2.5,1.1,3.5,0c4.6-4.6,9.2-9.2,13.8-13.8c1.8-1.8,3.9-2.4,6.3-1.7c2.6,0.8,4.2,2.6,4.8,5.2c0.5,2.2-0.2,4.1-1.8,5.6
			c-4.6,4.6-9.2,9.2-13.8,13.8c-1,1-1.2,2.4-0.4,3.3c1.3,1.4,2.3,1.3,3.8,0.4c1.5-0.9,2.2-2.6,3.5-3.7c1.3-1.1,2.4-2.4,3.7-3.6
			c0.6-0.6,1.2-1.1,1.7-1.7c1.8-1.9,3.9-2.7,6.5-1.9s4.2,2.6,4.8,5.3c0.4,2-0.1,3.9-1.6,5.4c-7.3,7.3-14.3,14.3-21.6,21.6h6.4
			c6.2-6.2,12.2-12.2,18.5-18.4c1.3-1.3,2.2-2.9,2.6-4.7c1.5-6.1-2.5-12.5-8.7-13.7c-0.3-0.1-0.5-0.1-0.8-0.2
			c4.6-7.2,0-16.2-8.1-17.5c1.9-3.4,2.1-6.9,0.4-10.4s-4.5-5.6-8.5-6.5c1.2-1.2,2.4-2.3,3.5-3.4c3.5-3.5,7-6.9,10.4-10.4
			c1-1,1.8-2.1,2.4-3.4c2-4.4,0.9-9.4-2.8-12.9c-4.2-4-11.2-4-15.2,0c-13.5,13.5-26.9,26.9-40.4,40.4c-0.2,0.2-0.4,0.4-0.7,0.6
			c-0.1-0.1-0.2-0.2-0.2-0.2c-1-4.3-3.2-8-6.1-11.3c-2.4-2.7-5.3-4.9-8.9-5.9c-4.2-1.2-7.7,0.2-9.6,3.8c-1.3,2.4-1.4,4.8-0.5,7.4
			c2.3,6.5,3.4,13.1,3,20C1179.3,155,1179,159.1,1178.6,163.2z"/>
		<path class="st1" d="M1281,102.4c1.1,0,2.1,0,3.2,0c-0.1,0.9-0.1,1.8-0.2,2.8c-1.1-0.1-2.1-0.2-3.2-0.3
			C1280.9,104.1,1280.9,103.3,1281,102.4z"/>
		<path class="st1" d="M1278,114.5c0.4-0.8,0.7-1.5,1.1-2.3c1,0.4,1.9,0.8,3,1.2c-0.4,0.9-0.8,1.7-1.2,2.6
			C1279.9,115.5,1279,115,1278,114.5z"/>
		<path class="st1" d="M1269,127.9c-0.5-1-1-1.9-1.5-2.9c0.7-0.4,1.4-0.8,2.1-1.3c0.6,0.9,1.2,1.7,1.8,2.7
			C1270.6,126.9,1269.9,127.3,1269,127.9z"/>
		<path class="st1" d="M1263.9,130c-0.3-1.1-0.6-2-1-3c0.8-0.3,1.5-0.6,2.3-0.9c0.4,0.9,0.8,1.9,1.3,2.9
			C1265.6,129.4,1264.8,129.7,1263.9,130z"/>
		<path class="st1" d="M1247,70.5c0.2,1,0.3,1.9,0.4,2.8c0,0.2-0.3,0.5-0.5,0.5c-0.6,0.2-1.2,0.3-1.9,0.4c-0.2-1-0.5-2-0.7-3.1
			C1245.2,70.9,1246.1,70.7,1247,70.5z"/>
		<path class="st1" d="M1226.6,84.2c0.5-0.8,1-1.6,1.6-2.4c0.9,0.6,1.7,1.2,2.5,1.9c-0.5,0.7-0.9,1.4-1.3,2.1
			C1228.4,85.3,1227.6,84.8,1226.6,84.2z"/>
		<path class="st1" d="M1240.3,75.8c-0.5-1-0.9-1.9-1.4-2.9c0.8-0.3,1.7-0.7,2.6-1c0.4,1,0.7,2,1.1,3
			C1241.9,75.2,1241.2,75.5,1240.3,75.8z"/>
		<path class="st1" d="M1283,110.8c-1.1-0.3-2-0.6-3.1-0.9c0.2-0.8,0.4-1.6,0.6-2.4c1,0.2,2,0.4,3.1,0.6
			C1283.4,108.9,1283.2,109.8,1283,110.8z"/>
		<path class="st1" d="M1226.5,92.8c-0.2,0.9-0.3,1.6-0.5,2.4c-1-0.1-2-0.3-3.2-0.5c0.2-0.9,0.4-1.8,0.5-2.8
			C1224.4,92.2,1225.4,92.5,1226.5,92.8z"/>
		<path class="st1" d="M1276.7,116.6c0.9,0.6,1.8,1.2,2.7,1.8c-0.6,0.8-1.1,1.5-1.7,2.3c-0.8-0.7-1.6-1.3-2.5-2
			C1275.7,118,1276.2,117.4,1276.7,116.6z"/>
		<path class="st1" d="M1236.1,78.4c-0.6-0.8-1.2-1.7-1.9-2.6c0.8-0.5,1.5-1,2.4-1.6c0.5,1,1,1.8,1.6,2.8
			C1237.4,77.5,1236.8,77.9,1236.1,78.4z"/>
		<path class="st1" d="M1232,77.7c0.7,0.7,1.4,1.5,2,2.2c-0.6,0.6-1.2,1.2-1.8,1.8c-0.8-0.7-1.5-1.4-2.3-2.1
			C1230.7,79,1231.3,78.4,1232,77.7z"/>
		<path class="st1" d="M1273.7,124.7c-0.7-0.9-1.4-1.6-2-2.5c0.6-0.6,1.2-1.1,1.9-1.7c0.7,0.8,1.4,1.6,2.1,2.4
			C1275.1,123.4,1274.5,124,1273.7,124.7z"/>
		<path class="st1" d="M1224.2,89.3c0.4-0.9,0.7-1.7,1.1-2.6c1,0.5,1.9,0.9,2.9,1.4c-0.3,0.8-0.6,1.5-0.9,2.3
			C1226.2,90,1225.3,89.6,1224.2,89.3z"/>
		<path class="st1" d="M1274.5,103c-0.1,0.9-0.2,1.6-0.3,2.5c-0.7-0.1-1.2-0.1-1.8-0.3c-0.1,0-0.3-0.4-0.3-0.6
			c0-0.5,0.1-1.1,0.2-1.8C1272.9,102.9,1273.6,103,1274.5,103z"/>
		<path class="st1" d="M1271.4,107.4c0.7,0.2,1.3,0.4,2.1,0.7c-0.3,0.8-0.6,1.6-0.9,2.4c-0.7-0.3-1.3-0.6-2-0.9
			C1270.9,108.7,1271.2,108.1,1271.4,107.4z"/>
		<path class="st1" d="M1240.8,83.2c0.8-0.4,1.5-0.8,2.2-1.3c0.3,0.7,0.6,1.3,1,2c-0.6,0.4-1.2,0.7-1.9,1.2
			C1241.7,84.4,1241.3,83.8,1240.8,83.2z"/>
		<path class="st1" d="M1271.4,112.7c-0.5,0.7-1,1.4-1.5,2c-0.6-0.5-1.1-0.9-1.7-1.4c0.4-0.6,0.9-1.2,1.3-1.8
			C1270.1,111.9,1270.7,112.2,1271.4,112.7z"/>
		<path class="st1" d="M1260.8,118.5c0.7-0.3,1.4-0.6,2.1-0.9c0.3,0.6,0.7,1.2,1,1.9c-0.8,0.4-1.5,0.7-2.3,1
			C1261.3,119.8,1261,119.2,1260.8,118.5z"/>
		<path class="st1" d="M1233.2,93.1c0.8,0.3,1.4,0.5,2.1,0.7c-0.2,0.7-0.4,1.4-0.6,2.2c-0.7-0.1-1.4-0.3-2.2-0.4
			C1232.7,94.8,1233,94,1233.2,93.1z"/>
		<path class="st1" d="M1240.2,86.3c-0.6,0.6-1.1,1.1-1.6,1.6c-0.5-0.5-1.1-0.9-1.7-1.5c0.6-0.6,1.2-1.1,1.9-1.8
			C1239.4,85.3,1239.8,85.8,1240.2,86.3z"/>
		<path class="st1" d="M1235.5,88.5c0.7,0.5,1.2,0.8,1.8,1.2c-0.4,0.7-0.7,1.3-1.1,1.9c-0.7-0.3-1.3-0.6-2-1
			C1234.6,90,1235,89.3,1235.5,88.5z"/>
		<path class="st1" d="M1268.1,116.6c-0.7,0.5-1.3,1-2,1.6c-0.4-0.6-0.8-1.1-1.3-1.8c0.6-0.5,1.1-0.9,1.8-1.4
			C1267,115.5,1267.5,116,1268.1,116.6z"/>
		<path class="st1" d="M1247.9,80.2c0.2,0.8,0.3,1.4,0.4,2.1c-0.7,0.2-1.4,0.4-2.1,0.6c-0.2-0.7-0.5-1.3-0.7-2.1
			C1246.3,80.7,1247,80.4,1247.9,80.2z"/>
		<path class="st1" d="M1222.5,98.9c0-0.4,0-0.9,0.1-1.3c1.1,0.1,2.1,0.1,3.1,0.2c0,0.4,0,0.8,0,1.2
			C1224.6,98.9,1223.6,98.9,1222.5,98.9z"/>
		<path class="st1" d="M1280.8,99.9c0-0.5-0.1-0.8-0.1-1.2c1-0.2,2-0.3,3-0.4c0.5,1.3,0.4,1.4-0.9,1.5
			C1282.2,99.7,1281.6,99.8,1280.8,99.9z"/>
		<path class="st1" d="M1261.1,130.7c-0.5,0.1-0.9,0.1-1.3,0.2c-0.2-1-0.4-2.1-0.6-3.1c0.5-0.1,0.8-0.1,1.3-0.2
			C1260.7,128.7,1260.9,129.7,1261.1,130.7z"/>
		<path class="st1" d="M1249.8,70.2c0.5,0,0.9,0,1.4,0c0,0.5,0,1,0,1.5s0,1,0,1.6c-0.4,0-0.7,0.1-1.2,0.1
			C1250,72.4,1249.9,71.4,1249.8,70.2z"/>
		<path class="st1" d="M1251.8,82c-0.4,0-0.8,0-1.2,0c0-0.7-0.1-1.4-0.1-2.1c0.5,0,0.9-0.1,1.3-0.1
			C1251.8,80.5,1251.8,81.2,1251.8,82z"/>
		<path class="st1" d="M1257.4,119.4c0.4-0.1,0.8-0.2,1.2-0.2c0.2,0.7,0.3,1.4,0.5,2.1c-0.5,0.1-0.9,0.1-1.3,0.2
			C1257.6,120.8,1257.5,120.1,1257.4,119.4z"/>
		<path class="st1" d="M1274.2,99.1c0.1,0.5,0.1,0.9,0.2,1.4c-0.8,0-1.4,0.1-2.2,0.1c0-0.4-0.1-0.8-0.1-1.2
			C1272.8,99.3,1273.5,99.2,1274.2,99.1z"/>
		<path class="st1" d="M1234.3,99.5c-0.7,0-1.4,0-2.1,0c0-0.5,0-0.9,0-1.4c0.7,0.1,1.4,0.1,2.2,0.2
			C1234.3,98.8,1234.3,99.1,1234.3,99.5z"/>
		<path class="st1" d="M1183.2,163.5c-0.1,1.4-0.4,2.7-1,4c-2.3,5-3.7,10.2-3.8,15.7c0.1,0.9,0.1,1.7,0.2,2.6
			c0.4,4.5,1.8,8.6,4.4,12.2h59.6c7.3-7.2,14.5-14.5,21.8-21.8c1.5-1.5,2-3.3,1.6-5.4c-0.6-2.7-2.2-4.5-4.8-5.3
			c-2.5-0.8-4.7,0-6.5,1.9c-0.6,0.6-1.1,1.2-1.7,1.7c-1.2,1.2-2.3,2.5-3.7,3.6c-1.3,1.1-2,2.7-3.5,3.7c-1.5,0.9-2.5,1-3.8-0.4
			c-0.8-0.9-0.6-2.2,0.4-3.3c4.6-4.6,9.2-9.2,13.8-13.8c1.6-1.6,2.2-3.5,1.8-5.6c-0.6-2.6-2.2-4.4-4.8-5.2c-2.4-0.7-4.5-0.1-6.3,1.7
			c-4.6,4.6-9.2,9.2-13.8,13.8c-1.1,1.1-2.4,1.1-3.5,0c-1-1-1-2.4,0-3.5c6-6.1,12.1-12.1,18.2-18.2c1.5-1.5,2.2-3.3,1.8-5.4
			c-0.5-2.7-2.1-4.6-4.7-5.4c-2.4-0.8-4.6-0.2-6.4,1.6c-1.5,1.5-3,3.1-4.6,4.6c-4.5,4.5-9,9-13.5,13.5c-1.2,1.2-2.5,1.2-3.6,0
			c-1-1-0.8-2.3,0.3-3.5c4.1-4,8.1-8.1,12.2-12.2c4.5-4.5,9-8.9,13.5-13.4c2.1-2.1,4.2-4.3,6.4-6.5c2.1-2.1,4.2-4.2,6.3-6.4
			c2.5-2.6,2.4-6.6-0.2-9.2c-2.7-2.8-6.7-2.9-9.4-0.3c-7.8,7.8-15.6,15.6-23.4,23.4c-6.9,6.9-13.8,13.8-20.8,20.8
			c-0.7,0.7-1.5,1-2.5,0.7s-1.5-1.1-1.6-2.1c-0.1-1.3-0.2-2.7-0.5-4c-1.1-4.8-3.8-8.7-7.5-11.9c-1.6-1.3-3.3-2.3-5.4-2.5
			c-1.5-0.2-2.6,0.4-3.3,1.8c-0.7,1.4-0.6,2.8-0.1,4.2c2.5,6.8,3.5,13.8,3.1,21C1183.9,155.1,1183.4,159.3,1183.2,163.5z"/>
	</g>
</g>
<g>
	<path class="st6" d="M1559,198V40.7c-25.6-19.6-57.7-31.3-92.4-31.3c-84.1,0-152.2,68.1-152.2,152.2c0,12.8,1.4,24.5,4.4,36.4H1559
		z"/>
	<path class="st7" d="M1559,198.1V49.5c-25.1-20.8-57.8-34-92.9-34c-80.1,0-145,64.9-145,145c0,13,1.7,25.6,4.9,37.6H1559z"/>
	<g>
		<polyline class="st8" points="1375.9,126.6 1375.8,116.8 1381.2,116.6 1381.3,126.2 		"/>
		<ellipse cx="1458.1" cy="47.2" rx="49.8" ry="16.9"/>
		<rect x="1404.8" y="149.7" width="86.4" height="48.4"/>
		<polygon class="st9" points="1404.8,149.7 1491.2,149.7 1491.2,55.2 1426.4,55.2 		"/>
		<polyline class="st10" points="1453.3,55.2 1437.8,122.8 1468.4,122.8 1468.4,149.7 		"/>
		<line class="st11" x1="1468.5" y1="134.7" x2="1482.5" y2="131.2"/>
		<circle class="st11" cx="1465.7" cy="94.8" r="6.7"/>
		<circle class="st11" cx="1433.2" cy="84.9" r="6.7"/>
		<line class="st11" x1="1458.8" y1="92.6" x2="1439.9" y2="86.6"/>
		<line class="st11" x1="1472.4" y1="95.3" x2="1493.6" y2="87.1"/>
		<line class="st11" x1="1426" y1="83" x2="1416.9" y2="83"/>
		<polygon points="1482.8,69.2 1457,78.7 1458.7,82.8 1483.6,71.1 		"/>
		<polygon points="1422.7,69.2 1448.5,77.1 1449.6,72.7 1423.2,67.3 		"/>
		<circle class="st12" cx="1444.7" cy="168.1" r="1.2"/>
		<circle class="st12" cx="1444.7" cy="159.5" r="1.2"/>
		<circle class="st12" cx="1444.7" cy="185.5" r="1.2"/>
		<circle class="st12" cx="1444.7" cy="193.4" r="1.2"/>
		<circle class="st12" cx="1444.7" cy="176.9" r="1.2"/>
		<path class="st13" d="M1476.3,62.8c0,0-6.1,9.8-18.6,9.8s-36.1-0.8-39.8-2.9c-3.8-2.1,7.1-9.1,7.1-9.1l52.6,0.2L1476.3,62.8z"/>
		<path class="st13" d="M1492,61.9v-8.3c0,0-33.9-14.4-66.9-0.1l-0.3,8.6C1424.7,62,1457.6,61.9,1492,61.9z"/>
		<path class="st14" d="M1437.8,150.3c0.2,14.7,0.2,31.7,0,47.2"/>
		<g>
			<polyline class="st1" points="1496.8,179.4 1488.8,185.1 1485.6,180.9 1493.3,175.3 			"/>
			<polyline class="st15" points="1496.8,179.4 1488.8,185.1 1485.6,180.9 1493.3,175.3 			"/>
			<polygon points="1516.4,157.1 1488.6,157.1 1488.6,150.4 1537,150.4 1497.2,179.7 1493.1,174.3 			"/>
			<polygon class="st16" points="1516.4,157.1 1488.6,157.1 1488.6,150.4 1537,150.4 1497.2,179.7 1493.1,174.3 			"/>
		</g>
		<path class="st17" d="M1491.2,165.6l-53.4-15.3l-33,15.3v-15.9h86.4C1491.2,149.7,1491.2,165,1491.2,165.6z"/>
		<g>
			<g>
				<polyline points="1404.5,150.3 1381.6,150.3 1381.6,126.2 1375.5,126.2 1375.5,156.4 1404.5,156.4 				"/>
				<polygon points="1374.6,157.2 1404.5,157.2 1404.5,155.6 1376.3,155.6 1376.3,127 1380.7,127 1380.7,151.1 1404.5,151.1 
					1404.5,149.5 1382.4,149.5 1382.4,125.4 1374.6,125.4 				"/>
			</g>
		</g>
		<g>
			<path d="M1375,125.7h5.3v3.8h-5.3V125.7z M1379.5,126.6h-3.6v2.2h3.6V126.6z"/>
		</g>
		<g>
			<path d="M1375,125.8h6.9v9.5h-6.9V125.8z M1381.1,126.6h-5.3v7.8h5.3V126.6z"/>
		</g>
		<g>
			<path class="st18" d="M1400.8,110.8L1400.8,110.8c-0.1-0.1-0.1-0.1-0.1-0.2c-3-8.1-6-16.1-9-24.2l0,0
				C1394.8,94.5,1397.8,102.7,1400.8,110.8z"/>
			<path d="M1391.7,86.4c3,8.1,6,16.1,9,24.2c0,0.1,0,0.1,0.1,0.2c-0.1,0-0.2,0.1-0.4,0.1c-11.7,4.4-23.4,8.7-35.1,13.1
				c-0.3,0.1-0.2,0.1-0.3-0.1c-3-8-6-15.9-8.9-23.9c-0.1-0.3-0.1-0.2,0.2-0.3c11.8-4.4,23.5-8.8,35.3-13.2
				C1391.6,86.5,1391.6,86.5,1391.7,86.4z M1388.4,90.2c-9.1,3.4-18.2,6.8-27.3,10.2c0.3,0.1,0.5,0.2,0.8,0.3c1,0.4,2,0.8,3,1.2
				c1,0.4,2,0.8,3,1.2c1.6,0.7,3.2,1.3,4.8,1.9c0.4,0.2,0.8,0.3,1.2,0.5c1.3,0.5,2.6,1.1,4,1.6c0.8,0.3,1.9-0.1,2.2-0.9
				c0.6-1.3,1.3-2.5,1.9-3.8c0.9-1.7,1.8-3.5,2.7-5.2c1.1-2.1,2.2-4.3,3.3-6.4C1388.2,90.7,1388.3,90.5,1388.4,90.2z M1395.6,110.1
				c-0.3-0.2-0.7-0.3-1-0.4c-0.6-0.3-1.2-0.5-1.8-0.7c-1-0.4-1.9-0.8-2.9-1.2c-1.1-0.4-2.1-0.9-3.2-1.3c-1-0.4-1.9-0.8-2.9-1.2h-0.1
				c-0.1-0.1-0.1,0-0.2,0.1c-0.2,0.3-0.3,0.6-0.5,0.9c-0.3,0.5-0.5,1-0.8,1.5c-0.7,1-1.6,1.6-2.8,1.9c-1,0.2-1.9,0.2-2.8-0.1
				c-0.7-0.3-1.4-0.6-2.2-0.9c-0.1-0.1-0.2,0-0.2,0.1c-0.2,0.5-0.5,1-0.7,1.4c-0.3,0.6-0.6,1.1-0.9,1.7c-0.6,1.2-1.2,2.3-1.8,3.5
				c-0.3,0.5-0.5,1-0.8,1.5c-0.3,0.6-0.6,1.2-0.9,1.8c-0.2,0.4-0.4,0.9-0.7,1.3c0,0.1-0.1,0.2-0.1,0.3
				C1377.5,116.9,1386.6,113.5,1395.6,110.1z M1360,102.8c2,5.5,4.1,11,6.1,16.5c0-0.1,0.1-0.1,0.1-0.2c0.3-0.5,0.5-1,0.8-1.5
				c0.6-1.1,1.2-2.2,1.7-3.4c0.3-0.6,0.6-1.1,0.9-1.7s0.6-1.1,0.8-1.7c0.4-0.8,0.8-1.6,1.2-2.4c0.1-0.2,0.2-0.5,0.4-0.7
				c0.1-0.1,0.1-0.1-0.1-0.2c-0.9-0.4-1.9-0.7-2.8-1.1c-1-0.4-2-0.8-2.9-1.2c-1.1-0.5-2.2-0.9-3.3-1.3c-0.8-0.3-1.6-0.7-2.4-1
				C1360.3,102.9,1360.1,102.8,1360,102.8z M1396.7,107.8c-2-5.4-4-10.8-6.1-16.3c-0.2,0.4-0.4,0.8-0.6,1.2
				c-0.9,1.8-1.8,3.5-2.7,5.3c-0.8,1.6-1.6,3.2-2.5,4.7c-0.1,0.1-0.1,0.2,0.1,0.3c0.1,0,0.2,0.1,0.3,0.1c1,0.4,2.1,0.8,3.1,1.3
				c1.1,0.4,2.1,0.9,3.2,1.3c1,0.4,1.9,0.8,2.9,1.2c0.5,0.2,1,0.4,1.6,0.6C1396.3,107.6,1396.5,107.7,1396.7,107.8z"/>
			<path class="st1" d="M1388.4,90.2c-0.1,0.3-0.3,0.5-0.4,0.7c-1.1,2.1-2.2,4.3-3.3,6.4c-0.9,1.7-1.8,3.5-2.7,5.2
				c-0.6,1.3-1.3,2.5-1.9,3.8c-0.4,0.7-1.5,1.2-2.2,0.9c-1.3-0.5-2.7-1.1-4-1.6c-0.4-0.2-0.8-0.3-1.2-0.5c-1.6-0.6-3.2-1.3-4.8-1.9
				c-1-0.4-2-0.8-3-1.2c-1-0.4-2-0.8-3-1.2c-0.2-0.1-0.5-0.2-0.8-0.3C1370.2,97,1379.3,93.7,1388.4,90.2z"/>
			<path class="st1" d="M1395.6,110.1c-9.1,3.4-18.1,6.8-27.1,10.1c0-0.1,0.1-0.2,0.1-0.3c0.2-0.4,0.5-0.9,0.7-1.3
				c0.3-0.6,0.6-1.2,0.9-1.8c0.2-0.5,0.5-1,0.8-1.5c0.6-1.2,1.2-2.3,1.8-3.5c0.3-0.6,0.6-1.1,0.9-1.7c0.2-0.5,0.5-1,0.7-1.4
				c0.1-0.1,0.1-0.1,0.2-0.1c0.7,0.3,1.4,0.6,2.2,0.9c0.9,0.3,1.8,0.4,2.8,0.1c1.2-0.3,2.1-0.9,2.8-1.9c0.3-0.5,0.6-1,0.8-1.5
				c0.2-0.3,0.3-0.6,0.5-0.9c0-0.1,0.1-0.1,0.2-0.1h0.1c1,0.4,1.9,0.8,2.9,1.2c1.1,0.4,2.1,0.9,3.2,1.3c1,0.4,1.9,0.8,2.9,1.2
				c0.6,0.3,1.2,0.5,1.8,0.7C1395,109.8,1395.3,110,1395.6,110.1z"/>
			<path class="st1" d="M1360,102.8c0.2,0,0.3,0.1,0.4,0.2c0.8,0.3,1.6,0.6,2.4,1c1.1,0.5,2.2,0.9,3.3,1.3c1,0.4,2,0.8,2.9,1.2
				c0.9,0.4,1.8,0.7,2.8,1.1c0.1,0,0.1,0.1,0.1,0.2c-0.1,0.2-0.2,0.5-0.4,0.7c-0.4,0.8-0.8,1.6-1.2,2.4c-0.3,0.6-0.6,1.1-0.8,1.7
				c-0.3,0.6-0.6,1.1-0.9,1.7c-0.5,1.1-1.1,2.2-1.7,3.4c-0.3,0.5-0.5,1-0.8,1.5c0,0.1-0.1,0.1-0.1,0.2
				C1364.1,113.7,1362,108.3,1360,102.8z"/>
			<path class="st1" d="M1396.7,107.8c-0.3-0.1-0.5-0.2-0.7-0.3c-0.5-0.2-1-0.4-1.6-0.6c-1-0.4-1.9-0.8-2.9-1.2
				c-1.1-0.4-2.1-0.9-3.2-1.3c-1-0.4-2.1-0.9-3.1-1.3c-0.1,0-0.2-0.1-0.3-0.1c-0.2,0-0.2-0.1-0.1-0.3c0.8-1.6,1.7-3.1,2.5-4.7
				c0.9-1.8,1.8-3.5,2.7-5.3c0.2-0.4,0.4-0.8,0.6-1.2C1392.7,96.9,1394.7,102.4,1396.7,107.8z"/>
		</g>
	</g>
</g>
</svg>
