<svg xmlns="http://www.w3.org/2000/svg" xmlns:xlink="http://www.w3.org/1999/xlink"><symbol id="arrow"><path d="M30 13.478H2M13.586 24.728L2.272 13.414M13.586 2L2.272 13.314"/></symbol><symbol id="arrow_down"><path stroke="#7E2E7A" d="M.354.646l4 4M7.646.646l-4 4"/></symbol><symbol id="aut"><path d="M1.096 0h8.312a.594.594 0 010 1.187H1.69v16.625h7.718a.594.594 0 010 1.188H1.096a.594.594 0 01-.594-.594V.594C.502.266.768 0 1.096 0z" fill="#6F0068"/><path d="M14.526 13.031a.604.604 0 000 .803.49.49 0 00.735 0L18.849 9.9a.609.609 0 000-.803l-3.588-3.932a.49.49 0 00-.736 0 .604.604 0 000 .803l2.705 2.963H6.52c-.287 0-.52.254-.52.568 0 .313.233.567.52.567h10.71l-2.704 2.964z" fill="#6F0068"/></symbol><symbol id="callback"><path d="M1.888 14.455l-.114.911a.75.75 0 01-.834.65c-.378-.047-.687-.356-.65-.833l.342-2.74a.75.75 0 01.83-.651l2.777.338a.747.747 0 11-.184 1.48l-1.032-.125a7.446 7.446 0 008.291 2.656c3.068-.988 5.173-3.89 5.18-7.097 0-.474.316-.775.727-.786.412-.007.764.287.764.786 0 3.85-2.53 7.336-6.215 8.519a8.924 8.924 0 01-9.882-3.108zM13.746 5.866a.747.747 0 11.184-1.48l1.032.125a7.446 7.446 0 00-8.29-2.656c-3.068.988-5.173 3.89-5.18 7.097 0 .474-.316.775-.728.786C.353 9.746 0 9.452 0 8.952-.004 5.106 2.527 1.62 6.212.437A8.932 8.932 0 0116.1 3.545l.114-.911a.75.75 0 01.834-.65c.378.047.687.356.65.833l-.342 2.74a.75.75 0 01-.83.651l-2.78-.342z"/></symbol><symbol id="china" viewBox="-49 141 512 512"><style>.st1{fill:#ffda44}</style><circle cx="207" cy="397" r="256" fill="#d80027"/><path class="st1" d="M91.1 296.8l22.1 68h71.5l-57.8 42.1 22.1 68-57.9-42-57.9 42 22.2-68-57.9-42.1H69zM254.5 537.5l-16.9-20.8-25 9.7 14.5-22.5-16.9-20.9 25.9 6.9 14.6-22.5 1.4 26.8 26 6.9-25.1 9.6zM288.1 476.5l8-25.6-21.9-15.5 26.8-.4 7.9-25.6 8.7 25.4 26.8-.3-21.5 16 8.6 25.4-21.9-15.5zM333.4 328.9L321.6 353l19.2 18.7-26.5-3.8-11.8 24-4.6-26.4-26.6-3.8 23.8-12.5-4.6-26.5 19.2 18.7zM255.2 255.9l-2 26.7 24.9 10.1-26.1 6.4-1.9 26.8-14.1-22.8-26.1 6.4 17.3-20.5-14.2-22.7 24.9 10.1z"/></symbol><symbol id="content" viewBox="0 0 512 512"><path d="M248 448h16v16h-16zM56 192h29.438l53.914 38.512a8 8 0 0012.492-8.082L145.758 192H200a40.047 40.047 0 0040-40V56a40.047 40.047 0 00-40-40H56a40.047 40.047 0 00-40 40v96a40.047 40.047 0 0040 40zM32 56a24.027 24.027 0 0124-24h144a24.027 24.027 0 0124 24v96a24.027 24.027 0 01-24 24h-64a8 8 0 00-7.844 9.57l4.032 20.16-39.54-28.242A8 8 0 0088 176H56a24.027 24.027 0 01-24-24z"/><path d="M72 96v48a8 8 0 008 8h64a8 8 0 008-8v-3.055l20.422 10.211A8 8 0 00184 144V96a8 8 0 00-11.578-7.156L152 99.055V96c0-.133-.069-.244-.076-.375A27.962 27.962 0 10112 56.466a27.962 27.962 0 10-39.924 39.159c-.007.131-.076.242-.076.375zm64 40H88v-32h48zm32-27.055v22.11l-16-8v-6.11zM132 64a12 12 0 11-12 12 12.013 12.013 0 0112-12zm-40 0a12 12 0 11-12 12 12.013 12.013 0 0112-12zM456 80h-72.809A40.067 40.067 0 00344 48h-88v16h88a23.96 23.96 0 0122.526 16H296a40.047 40.047 0 00-40 40v96a40.047 40.047 0 0040 40h62.242l-6.086 30.43a8 8 0 0012.492 8.082l3.352-2.394v32.57l-22.344-22.344a36.283 36.283 0 10-51.312 51.312L341.688 401a75.171 75.171 0 00-7.513 15H128v40a40.047 40.047 0 0040 40h280a8 8 0 008-8V336.32a87.6 87.6 0 00-21.422-57.527l-17.022-22.074 1.006-.719H456a40.047 40.047 0 0040-40v-96a40.047 40.047 0 00-40-40zM296 96h160a24.027 24.027 0 0124 24v81.052l-35.562-23.708a8.01 8.01 0 00-8.876 0L392.273 206.2 332.8 161.6a7.992 7.992 0 00-9.594 0L272 200v-80a24.027 24.027 0 0124-24zM144 456v-24h185.716a77.928 77.928 0 007.806 48H168a24.027 24.027 0 01-24-24zm278.219-167.059A72 72 0 01440 336.32V480h-83.961a61.984 61.984 0 01-8.687-53.727 60.021 60.021 0 017.687-16.453l3.6-5.359a8 8 0 00-.985-10.117l-52-52a20.284 20.284 0 0128.688-28.684l68 68 11.312-11.312L384 340.688v-60l20.528-14.663zM456 240h-40a8 8 0 00-4.648 1.488l-39.54 28.242 4.032-20.16A8 8 0 00368 240h-72a23.973 23.973 0 01-23.625-20.285L328 178l59.2 44.4a7.991 7.991 0 009.235.258L440 193.613l39.6 26.4A23.986 23.986 0 01456 240z"/><path d="M392 176a32 32 0 10-32-32 32.034 32.034 0 0032 32zm0-48a16 16 0 11-16 16 16.019 16.019 0 0116-16zM56 400h128a40.047 40.047 0 0040-40v-48a40.047 40.047 0 00-40-40h-5.75l5.508-22.059a8 8 0 00-11.727-8.886L117.875 272H56a40.047 40.047 0 00-40 40v48a40.047 40.047 0 0040 40zm-24-88a24.027 24.027 0 0124-24h64a8 8 0 003.969-1.055l39.726-22.7-3.453 13.813A8 8 0 00168 288h16a24.027 24.027 0 0124 24v48a24.027 24.027 0 01-24 24H56a24.027 24.027 0 01-24-24z"/><path d="M48 312h88v16H48zM152 312h40v16h-40zM48 344h144v16H48z"/></symbol><symbol id="edit-close"><path stroke="#7E2E84" d="M.5.5h43v43H.5z"/><path d="M34 13.216L32.784 12 23 21.784 13.216 12 12 13.216 21.784 23 12 32.784 13.216 34 23 24.216 32.784 34 34 32.784 24.216 23 34 13.216z" fill="#7E2E84"/></symbol><symbol id="edit"><path d="M31.577 12.424a4.853 4.853 0 00-6.868 0L12.117 25.012a.63.63 0 00-.178.36l-.933 6.91a.627.627 0 00.178.53.64.64 0 00.445.189.512.512 0 00.084 0l4.163-.563a.639.639 0 00-.168-1.266l-3.338.45.652-4.82 5.073 5.074a.62.62 0 00.89 0l12.592-12.584a4.85 4.85 0 000-6.868zm-6.625 1.548l2.114 2.114-11.49 11.486-2.114-2.11 11.49-11.49zm-6.408 16.567l-2.068-2.067 11.49-11.49 2.067 2.067-11.49 11.49zm12.372-12.4l-5.06-5.054a3.593 3.593 0 015.059 5.058v-.004z" fill="#7E2E84"/><path stroke="#7E2E84" d="M.5.5h43v43H.5z"/></symbol><symbol id="en" viewBox="0 0 512 512"><circle cx="256" cy="256" r="256" fill="#f0f0f0"/><g fill="#0052b4"><path d="M52.92 100.142c-20.109 26.163-35.272 56.318-44.101 89.077h133.178L52.92 100.142zM503.181 189.219c-8.829-32.758-23.993-62.913-44.101-89.076l-89.075 89.076h133.176zM8.819 322.784c8.83 32.758 23.993 62.913 44.101 89.075l89.074-89.075H8.819zM411.858 52.921c-26.163-20.109-56.317-35.272-89.076-44.102v133.177l89.076-89.075zM100.142 459.079c26.163 20.109 56.318 35.272 89.076 44.102V370.005l-89.076 89.074zM189.217 8.819c-32.758 8.83-62.913 23.993-89.075 44.101l89.075 89.075V8.819zM322.783 503.181c32.758-8.83 62.913-23.993 89.075-44.101l-89.075-89.075v133.176zM370.005 322.784l89.075 89.076c20.108-26.162 35.272-56.318 44.101-89.076H370.005z"/></g><g fill="#d80027"><path d="M509.833 222.609H289.392V2.167A258.556 258.556 0 00256 0c-11.319 0-22.461.744-33.391 2.167v220.441H2.167A258.556 258.556 0 000 256c0 11.319.744 22.461 2.167 33.391h220.441v220.442a258.35 258.35 0 0066.783 0V289.392h220.442A258.533 258.533 0 00512 256c0-11.317-.744-22.461-2.167-33.391z"/><path d="M322.783 322.784L437.019 437.02a256.636 256.636 0 0015.048-16.435l-97.802-97.802h-31.482v.001zM189.217 322.784h-.002L74.98 437.019a256.636 256.636 0 0016.435 15.048l97.802-97.804v-31.479zM189.217 189.219v-.002L74.981 74.98a256.636 256.636 0 00-15.048 16.435l97.803 97.803h31.481zM322.783 189.219L437.02 74.981a256.328 256.328 0 00-16.435-15.047l-97.802 97.803v31.482z"/></g></symbol><symbol id="fb"><path d="M6.875 7.626v-2.75c0-.759.616-1.375 1.375-1.375h1.375V.064h-2.75A4.125 4.125 0 002.75 4.189v3.437H0v3.438h2.75v11h4.125v-11h2.75L11 7.626H6.875z" fill="#fff"/></symbol><symbol id="france" viewBox="0 0 512 512"><circle cx="256" cy="256" r="256" fill="#f0f0f0"/><path d="M512 256c0-110.071-69.472-203.906-166.957-240.077v480.155C442.528 459.906 512 366.071 512 256z" fill="#d80027"/><path d="M0 256c0 110.071 69.473 203.906 166.957 240.077V15.923C69.473 52.094 0 145.929 0 256z" fill="#0052b4"/></symbol><symbol id="ge" viewBox="0 0 512 512"><path d="M15.923 345.043C52.094 442.527 145.929 512 256 512s203.906-69.473 240.077-166.957L256 322.783l-240.077 22.26z" fill="#ffda44"/><path d="M256 0C145.929 0 52.094 69.472 15.923 166.957L256 189.217l240.077-22.261C459.906 69.472 366.071 0 256 0z"/><path d="M15.923 166.957C5.633 194.69 0 224.686 0 256s5.633 61.31 15.923 89.043h480.155C506.368 317.31 512 287.314 512 256s-5.632-61.31-15.923-89.043H15.923z" fill="#d80027"/></symbol><symbol id="insta"><path d="M2.183.213C.863.213 0 1.079 0 2.219c0 1.114.837 2.005 2.132 2.005h.025c1.346 0 2.183-.891 2.183-2.005C4.315 1.079 3.503.213 2.183.213zM.229 5.809h3.858v11.609H.23V5.808zM13.557 5.536c-2.082 0-3.478 1.956-3.478 1.956V5.81H6.221v11.609h3.858v-6.483c0-.347.025-.694.127-.942.28-.693.914-1.41 1.98-1.41 1.396 0 1.955 1.064 1.955 2.624v6.21h3.858v-6.656c0-3.565-1.904-5.225-4.442-5.225z" fill="#fff"/></symbol><symbol id="insurance" viewBox="0 0 64 64"><path d="M24 5a3 3 0 103 3 3 3 0 00-3-3zm0 4a1 1 0 111-1 1 1 0 01-1 1zM11 33h4v2h-4zM17 33h15v2H17zM11 39h4v2h-4zM11 45h4v2h-4zM11 51h4v2h-4z"/><path d="M61 35h-1a15.113 15.113 0 01-9-3l-2.4-1.8a.99.99 0 00-1.2 0L46 31.25V11a3.009 3.009 0 00-3-3h-8.18A3.01 3.01 0 0032 6h-2.34a6 6 0 00-11.32 0H16a3.01 3.01 0 00-2.82 2H5a3.009 3.009 0 00-3 3v48a3.009 3.009 0 003 3h38a3.016 3.016 0 002.35-1.15l2.22 1.05a.975.975 0 00.86 0l8.78-4.17A8.961 8.961 0 0062 49.78V36a1 1 0 00-1-1zM35 10h8a1 1 0 011 1v21.69a15.237 15.237 0 01-2 1.05V13a1 1 0 00-1-1h-6zM15 9a1 1 0 011-1h3.1a.988.988 0 00.98-.8 4 4 0 017.84 0 .988.988 0 00.98.8H32a1 1 0 011 1v4H15zm-1 6h20a1 1 0 001-1h5v20.44a15.03 15.03 0 01-4 .56h-1a1 1 0 00-1 1v3H17v2h17v4H17v2h17v2.78a9.867 9.867 0 00.08 1.22H17v2h17.61a9.027 9.027 0 001.91 3H8V14h5a1 1 0 001 1zm29 45H5a1 1 0 01-1-1V11a1 1 0 011-1h8v2H7a1 1 0 00-1 1v44a1 1 0 001 1h32.36l4.02 1.91A1.007 1.007 0 0143 60zm17-10.22a6.953 6.953 0 01-3.69 6.16L48 59.89l-8.29-3.94A6.975 6.975 0 0136 49.78V37a17.1 17.1 0 0010.2-3.4l1.8-1.35 1.8 1.35A17.1 17.1 0 0060 37z"/><path d="M30 21h-3v-3a1 1 0 00-1-1h-4a1 1 0 00-1 1v3h-3a1 1 0 00-1 1v4a1 1 0 001 1h3v3a1 1 0 001 1h4a1 1 0 001-1v-3h3a1 1 0 001-1v-4a1 1 0 00-1-1zm-1 4h-3a1 1 0 00-1 1v3h-2v-3a1 1 0 00-1-1h-3v-2h3a1 1 0 001-1v-3h2v3a1 1 0 001 1h3zM57.15 38.78a19.042 19.042 0 01-8.55-3.58.99.99 0 00-1.2 0 19.042 19.042 0 01-8.55 3.58 1.008 1.008 0 00-.85.99v10.01a4.994 4.994 0 002.58 4.37l.06.03 6.93 3.29a.975.975 0 00.86 0l6.99-3.32A5.006 5.006 0 0058 49.78V39.77a1.008 1.008 0 00-.85-.99zm-1.15 11a2.959 2.959 0 01-1.5 2.59L48 55.46l-6.48-3.07A3 3 0 0140 49.78v-9.17a21.108 21.108 0 008-3.38 21.108 21.108 0 008 3.38z"/><path d="M43.707 47.293l-1.414 1.414 3 3a1 1 0 001.414 0l8-8-1.414-1.414L46 49.586z"/></symbol><symbol id="internet" viewBox="0 0 512 512"><path d="M16 336a39.973 39.973 0 0062.042 33.356l64.6 64.6A39.993 39.993 0 10215.2 464h81.61a40 40 0 1072.551-30.042l34.8-34.8-11.314-11.314-34.8 34.8A39.972 39.972 0 00296.805 448H215.2a40.1 40.1 0 00-17.219-25.4l4.652-11.63-14.856-5.942-4.647 11.619a39.795 39.795 0 00-29.167 6l-64.6-64.6a39.795 39.795 0 006-29.167l59.619-23.847-5.942-14.856-59.64 23.848a40.1 40.1 0 00-25.4-17.22V215.2a40.1 40.1 0 0025.4-17.22l59.63 23.853 5.942-14.856-59.62-23.852a39.795 39.795 0 00-6-29.167l49.8-49.8-11.309-11.315-49.8 49.8A39.993 39.993 0 1048 215.2v81.61A40.068 40.068 0 0016 336zm320 96a24 24 0 11-24 24 24.028 24.028 0 0124-24zm-160 0a24 24 0 11-24 24 24.028 24.028 0 0124-24zM32 176a24 24 0 1124 24 24.028 24.028 0 01-24-24zm24 136a24 24 0 11-24 24 24.028 24.028 0 0124-24zm440-136a39.973 39.973 0 00-62.042-33.356l-64.6-64.6A39.993 39.993 0 10296.805 48H215.2a40.043 40.043 0 10-32.07 47.352l4.647 11.619 14.856-5.942-4.657-11.629A40.1 40.1 0 00215.2 64h81.61a40.1 40.1 0 0017.219 25.4l-7.852 19.63 14.855 5.942 7.848-19.619a39.795 39.795 0 0029.167-6l64.6 64.6a39.795 39.795 0 00-6 29.167l-59.619 23.847 5.942 14.856 59.63-23.853A40.1 40.1 0 00448 215.2v81.61a40.1 40.1 0 00-25.4 17.22l-23.63-9.453-5.942 14.856 23.619 9.447a39.795 39.795 0 006 29.167l-15.8 15.8 11.314 11.314 15.8-15.8A39.993 39.993 0 10464 296.805V215.2a40.068 40.068 0 0032-39.2zM176 80a24 24 0 1124-24 24.028 24.028 0 01-24 24zm160 0a24 24 0 1124-24 24.028 24.028 0 01-24 24zm144 256a24 24 0 11-24-24 24.028 24.028 0 0124 24zm-24-136a24 24 0 1124-24 24.028 24.028 0 01-24 24zm-272-16v184a16.019 16.019 0 0016 16h88v16h-88a32.036 32.036 0 01-32-32V184zm184 192v-87.432a31.79 31.79 0 00-9.372-22.627L344 251.314v57.372l13.657 13.657-11.314 11.314-16-16-27.03-27.03a8.97 8.97 0 10-12.685 12.687l27.029 27.029a8 8 0 011 10.095 41.8 41.8 0 00-2.6 41.784l3.1 6.2A7.994 7.994 0 01320 392v8h-16v-6.111l-2.256-4.512a57.851 57.851 0 01.239-52.08l-22.67-22.67a24.971 24.971 0 0135.315-35.313L328 292.686V152a16.019 16.019 0 00-16-16h-19.056l-5.789 11.578A8 8 0 01280 152h-48a8 8 0 01-7.155-4.422L219.056 136H200a16.019 16.019 0 00-16 16v16h-16v-16a32.036 32.036 0 0132-32h112a32.036 32.036 0 0132 32v76.686l25.941 25.941A47.686 47.686 0 01384 288.568V376zm-128-24h32v16h-32zm34.343-98.343a25.969 25.969 0 00-36.686 0l-11.314-11.314a41.989 41.989 0 0159.314 0zm24-20.118a59.882 59.882 0 00-84.686 0l-11.314-11.313a75.968 75.968 0 01107.314 0zM264 280v16h-16v-16zm-48 0h16v16h-16z"/></symbol><symbol id="italy" viewBox="0 0 512 512"><circle cx="256" cy="256" r="256" fill="#f0f0f0"/><path d="M512 256c0-110.071-69.472-203.906-166.957-240.077v480.155C442.528 459.906 512 366.071 512 256z" fill="#d80027"/><path d="M0 256c0 110.071 69.472 203.906 166.957 240.077V15.923C69.472 52.094 0 145.929 0 256z" fill="#6da544"/></symbol><symbol id="japan" viewBox="0 0 512 512"><circle cx="256" cy="256" r="256" fill="#f0f0f0"/><circle cx="256" cy="256" r="111.304" fill="#d80027"/></symbol><symbol id="logo"><path d="M100.533 59.313a10.738 10.738 0 00-.568-1.898 1.205 1.205 0 00-2.23-.097 4.156 4.156 0 000 4.032 1.247 1.247 0 002.299-.138c.219-.618.386-1.253.499-1.899zm-4.253 9.034a2.16 2.16 0 00.942 1.538 3.863 3.863 0 003.353.36 2.274 2.274 0 001.607-1.385 1.22 1.22 0 00-.928-1.802 11.728 11.728 0 00-3.547-.124c-.374 0-.749 0-.97.402-.222.401-.305.65-.457.983v.028zm.872 3.422c-.374-.097-.748-.166-1.122-.29a2.95 2.95 0 01-1.94-1.51 1.525 1.525 0 01.25-1.566l1.566-1.76a11.573 11.573 0 01-1.109-.928 2.023 2.023 0 01-.623-1.51c.023-.292.13-.57.304-.804.36-.458.804-.873 1.137-1.233a8.505 8.505 0 01-.929-1.594 3.31 3.31 0 011.51-4.156 5.042 5.042 0 013.02-.776c.829.019 1.652.135 2.453.346.72.19 1.486.09 2.134-.277.319-.152.651-.263.97-.388l.124.097-.512 1.026c0 .124-.153.235-.222.36a.556.556 0 01-.582.374 4.873 4.873 0 00-.97.083c.241.596.404 1.22.485 1.857a3.208 3.208 0 01-1.607 3.09 5.364 5.364 0 01-4.641.387h-.444a1.51 1.51 0 00-.25.804 1.053 1.053 0 001.123.831c.762 0 1.524-.097 2.3-.07.998 0 2.009.07 3.007.167a2.287 2.287 0 011.995 1.968 3.25 3.25 0 01-.97 3.048 7.191 7.191 0 01-4.461 2.286s-.07 0-.111.097l-1.885.041zM4.101 61.6v3.186a.471.471 0 00.402.54 2.924 2.924 0 003.159-1.163 4.71 4.71 0 00.623-4.157 3.034 3.034 0 00-3.034-2.3c-.79 0-1.15.388-1.15 1.164v2.771-.041zM.014 56.75a.61.61 0 01.512-.388l3.118-.47c.124-.014.25-.014.374 0v1.288l1.51-.845a3.366 3.366 0 013.935.415 4.642 4.642 0 011.857 2.91 5.971 5.971 0 01-2.647 6.4c-.73.39-1.522.653-2.341.777a3.186 3.186 0 01-1.663-.374l-.665-.305c0 .402.097.706.097.997v2.494a.5.5 0 00.402.555c.499.166.997.374 1.482.582.111 0 .25.221.222.304-.028.083 0 .485-.36.457-.36-.027-.998 0-1.497 0H1.22v-.54-12.636a.817.817 0 00-.458-.845A8.39 8.39 0 010 57.083l.014-.333zM152.351 55.933a1.523 1.523 0 001.579-1.677 1.612 1.612 0 00-.416-1.241 1.624 1.624 0 00-1.853-.391 1.624 1.624 0 00-.959 1.632 1.585 1.585 0 00.456 1.197 1.58 1.58 0 001.193.466v.014zm2.189-1.067a2.633 2.633 0 01-1.316 1.386 2.19 2.19 0 01-2.231-.264 2.097 2.097 0 01-.873-2.189 2.025 2.025 0 011.691-1.745 2.101 2.101 0 012.311.79c.169.236.288.505.349.789l.069 1.233z" fill="#1D1D1B"/><path d="M100.949 4.89a4.5 4.5 0 00-.693-2.77 1.526 1.526 0 00-2.383 0 5.181 5.181 0 00-.07 5.279 1.524 1.524 0 002.605-.139 4.34 4.34 0 00.541-2.355V4.89zm-1.704 8.924H97.79a1.815 1.815 0 00-1.76 1.704 2.092 2.092 0 001.025 1.829 4.669 4.669 0 004.587.318 2.373 2.373 0 001.482-1.593 1.488 1.488 0 00-.071-1.333 1.496 1.496 0 00-1.107-.745c-.886-.139-1.787-.167-2.688-.236l-.013.056zM106.186.069c-.222.485-.457.956-.665 1.386a1.027 1.027 0 01-1.219.72 3.86 3.86 0 00-.942.111c.035.106.081.209.138.305a4.145 4.145 0 01.42 3.212 4.16 4.16 0 01-2.013 2.538 6.541 6.541 0 01-5.722.138c-.804.86-.444 1.594.36 2.106.133.068.28.102.43.097 1.15 0 2.313-.097 3.463-.083a36.69 36.69 0 013.131.18 3.02 3.02 0 012.342 2.619 4.703 4.703 0 01-1.871 3.99 8.976 8.976 0 01-4.516 2.092 6.927 6.927 0 01-5.39-1.025 1.912 1.912 0 01-.305-3.062l1.58-1.524.305-.36a3.92 3.92 0 01-2.3-2.771c-.153-.61.235-.942.54-1.386.305-.443.873-.942 1.316-1.385a7.8 7.8 0 01-.776-.845 4.046 4.046 0 01.97-5.543 6.36 6.36 0 014.891-1.122c1.053.153 2.106.36 3.159.513.181-.005.358-.058.513-.153l1.648-.65.167-.167.346.07zM87.466 38.947a5.547 5.547 0 01-.332 1.524c-.27.346-.616.626-1.012.817a9.074 9.074 0 01-3.948 1.261 8.951 8.951 0 01-4.06-.36 4.157 4.157 0 01-2.77-3.963V13.176h-6.928V32.45c0 1.787-.25 3.56-.416 5.334 0 .512-.166 1.011-.25 1.524a2.287 2.287 0 01-1.385 1.773 13.62 13.62 0 01-4.156 1.275c-1.012.152-2.037.236-3.063.333a.594.594 0 01-.429-.167c-.236-.318-.43-.679-.665-1.066.998-.929 1.981-1.843 2.951-2.772.496-.401.959-.841 1.386-1.316.241-.363.385-.783.415-1.219.157-1.26.245-2.527.264-3.796V13.204a17.568 17.568 0 00-8.313 1.385 3.417 3.417 0 00-.14-.485c-.4-.9.209-1.385.777-1.842a12.068 12.068 0 015.957-2.577c.917-.15 1.843-.233 2.772-.25H82.2a17.873 17.873 0 003.935-.47c.832-.18 1.663-.292 2.494-.416.264 0 .457.083.402.401a12.11 12.11 0 01-1.884 5.307 6.927 6.927 0 01-.72.707c-.846-.485-1.663-.943-2.48-1.386a2.438 2.438 0 00-1.386-.346h-1.164v23.401a1.26 1.26 0 00.776 1.233 9.245 9.245 0 002.979.873c.734.125 1.468.194 2.286.29" fill="#92278f"/><path d="M26.642 65.022a2.59 2.59 0 001.954.166 3.34 3.34 0 002.341-2.688 4.046 4.046 0 00-1.385-4.434 2.328 2.328 0 00-2.771-.166.415.415 0 00-.166.291v6.845l.027-.014zm-.027-9.325v1.261l1.953-1.011a2.771 2.771 0 012.328 0 4.559 4.559 0 013.006 3.63 5.848 5.848 0 01-1.648 5.542 4.6 4.6 0 01-5.542.97v3.131a.762.762 0 00.61.9c.526.153 1.024.375 1.523.555-.07.734-.07.734-.706.734h-4.31v-.527-12.76a.748.748 0 00-.429-.748c-.18-.111-.374-.208-.54-.333-.166-.124-.25-.263-.222-.346.028-.083.208-.402.36-.444a39.18 39.18 0 012.217-.429c.471-.083.942-.11 1.386-.166M141.338 61.475v3.131a.527.527 0 00.429.582 2.773 2.773 0 003.201-1.15 4.558 4.558 0 00.18-5.112 2.606 2.606 0 00-3.45-1.109.556.556 0 00-.346.596v3.062h-.014zm.014-5.791v1.385c.485-.277.97-.54 1.385-.831a3.355 3.355 0 013.769.263 4.7 4.7 0 012.175 4.157 6.115 6.115 0 01-.693 3.172 5.546 5.546 0 01-3.644 2.771 3.38 3.38 0 01-2.59-.304l-.388-.18v3.837l2.147.832c0 .235-.111.457-.166.678h-4.836v-.65-12.595a.846.846 0 00-.484-.887 2.317 2.317 0 01-.499-.318c-.111-.097-.277-.25-.264-.347.014-.097.111-.47.416-.512l3.076-.458.513-.069M135.711 66.573a2.381 2.381 0 01-2.771-1.385 13.49 13.49 0 01-1.385 1.067 3.436 3.436 0 01-4.628-.956 4.799 4.799 0 01-.499-1.926c-.069-1.122 0-2.258 0-3.395 0-.665 0-1.385.084-1.98a.46.46 0 00-.305-.54 5.127 5.127 0 01-.665-.375c-.125-.07-.319-.25-.291-.291.068-.206.199-.385.374-.513.291-.098.594-.154.9-.166l2.938-.263a3.643 3.643 0 000 .443c0 2.286-.097 4.572-.083 6.928a1.635 1.635 0 002.286 1.635c.352-.11.681-.283.969-.513a.735.735 0 00.264-.527v-5.708c0-.457-.305-.54-.582-.707-.277-.166-.485-.208-.721-.332-.235-.125-.249-.194-.235-.236.014-.041.194-.485.332-.512 1.303-.139 2.605-.25 3.907-.36a.528.528 0 01.208 0l-.097 10.612zM117.075 61.184c0 .374.083.97.194 1.538.125.97.568 1.872 1.261 2.563a1.578 1.578 0 001.718.264 2.277 2.277 0 001.067-1.386 8.648 8.648 0 00.332-4.156 6.203 6.203 0 00-.845-2.494 1.62 1.62 0 00-2.882 0 6.723 6.723 0 00-.845 3.616v.055zm7.814-.125a5.537 5.537 0 01-1.326 4.449 5.542 5.542 0 01-9.619-4.615 5.404 5.404 0 015.542-5.25 5.128 5.128 0 015.445 5.416M63.58 61.115c-.526.235-1.108.457-1.648.72a2.01 2.01 0 00-.748.54 1.69 1.69 0 001.053 2.647c.526.11 1.385-.319 1.385-.735v-3.172h-.041zm-3.227-2.01a8.831 8.831 0 01-1.663-.152c-.222 0-.374-.443-.54-.693a1.388 1.388 0 01-.111-.304c.415-.291.831-.624 1.274-.873a9.825 9.825 0 013.506-1.386 3.368 3.368 0 013.505 2.55c.067.281.1.57.097.859v7.482a2.397 2.397 0 01-2.632-1.053c-.645.384-1.311.73-1.995 1.039a2.91 2.91 0 01-3.755-2.771 2.064 2.064 0 011.58-2.245c1.218-.485 2.452-.887 3.699-1.288a.498.498 0 00.401-.582 2.772 2.772 0 00-.692-2.134 2.037 2.037 0 00-2.356-.208c-.097 0-.124.263-.152.416-.07.415-.111.845-.166 1.385M15.476 60.034h3.338a.416.416 0 00.291-.277 3.797 3.797 0 00-.443-2.397 1.193 1.193 0 00-1.829-.374 4.157 4.157 0 00-1.385 3.062l.027-.014zm-.028 1.122a3.768 3.768 0 001.593 3.589 2.534 2.534 0 002.12.43c.302-.14.582-.322.831-.541l1.497-1.012a.735.735 0 010 .97 9.285 9.285 0 01-1.386 1.524 2.853 2.853 0 01-1.122.402 5.79 5.79 0 01-4.06-.402 4.446 4.446 0 01-2.424-3.366 6.346 6.346 0 01.457-4.074 5.056 5.056 0 013.408-2.77 4.489 4.489 0 014.268.941 3.603 3.603 0 011.163 2.397c.055.25.083.506.084.762 0 .693-.25.9-1.012.998-.762.097-1.455.152-2.189.166h-3.297M70.882 60.034h3.325a.47.47 0 00.32-.305 3.782 3.782 0 00-.416-2.327 1.233 1.233 0 00-1.913-.374 4.6 4.6 0 00-1.316 3.02v-.014zm.084 1.122a3.643 3.643 0 002.383 3.977 2.466 2.466 0 002.369-.651c.388-.32.831-.582 1.247-.86a.637.637 0 01.083.846 3.851 3.851 0 01-3.325 2.203 5.888 5.888 0 01-3.34-.624 4.504 4.504 0 01-2.355-3.45 6.706 6.706 0 01.18-3.145 5.099 5.099 0 014.018-3.644 4.296 4.296 0 014.157 1.206c.569.61.911 1.398.97 2.23a1.726 1.726 0 000 .264c.194.817-.125 1.385-.956 1.454-.832.07-1.802.153-2.702.18-.9.028-1.829 0-2.771 0M41.83 60.006v-1.385a2.175 2.175 0 00-.68-1.552c-.83-.693-1.579-.277-2.147.499a4.559 4.559 0 00-.748 2.452l3.574-.014zm-3.589 1.136a3.644 3.644 0 002.41 3.963 2.037 2.037 0 002.024-.388 15.97 15.97 0 011.62-1.108.9.9 0 01-.096 1.108c-.471.651-.873 1.386-1.704 1.593a7.93 7.93 0 01-1.857.347 4.739 4.739 0 01-5.085-3.506 5.86 5.86 0 011.455-6.068 5.03 5.03 0 015.694-.9 3.687 3.687 0 011.995 2.77c.042.239.07.48.084.72 0 1.11-.139 1.067-1.053 1.22a19.25 19.25 0 01-3.09.222h-2.452M51.015 66.352h-4.31v-2.397l-.082-11.666c0-.263-.07-.43-.319-.513a2.177 2.177 0 01-.582-.249c-.152-.097-.374-.263-.36-.374.014-.11.083-.471.416-.554a18.161 18.161 0 013.81-.513V61.683c0 1.011 0 2.023.083 3.034a.497.497 0 00.222.347c.263.152.554.249.845.388.554.249.554.249.346.9M111.465 66.366h-4.974v-.471-7.634a.567.567 0 00-.375-.624 5.337 5.337 0 01-.831-.457c0-.624.471-.734.901-.831.873-.208 1.745-.388 2.604-.61.25-.07.305 0 .333.208 0 .554.139 1.108.208 1.704a4.612 4.612 0 011.912-1.704 2.23 2.23 0 012.092 0 .406.406 0 01.252.371.41.41 0 01-.03.155c-.291.86-.582 1.732-.915 2.563-.166.444-.443.43-.679 0a9.866 9.866 0 01-.637-1.108c-.194-.374-.43-.43-.762-.25a1.912 1.912 0 00-1.205 1.885v4.96c0 .319.083.443.415.513.333.069.873.277 1.316.415.444.139.61.194.361.846M85.903 56.03h2.48c-.208.319-.305.693-.527.803a4.157 4.157 0 00-1.842 2.564c-.79 1.94-1.524 3.92-2.356 5.846a6.163 6.163 0 01-1.191 1.386c-.097.11-.305.11-.485.166l-2.3-5.68c-.554-1.386-1.123-2.771-1.69-4.157a2.119 2.119 0 01-.098-.499c0-.36.097-.512.485-.498h3.908l-.735 1.219a.54.54 0 00-.083.374c.651 1.801 1.303 3.602 2.01 5.542l2.424-7.135M57.346 65.7c0 .209-.097.43-.153.652h-4.322v-.485-7.662a.72.72 0 00-.513-.817 1.662 1.662 0 01-.443-.222c-.111-.097-.264-.277-.236-.388.028-.11.194-.374.333-.402 1.136-.221 2.286-.415 3.422-.623l.319-.083v8.922a.471.471 0 00.318.527c.416.166.832.374 1.275.582zM55.878 52.414c-.139.194-.263.443-.43.637-.166.194-.665.665-.983.997a.443.443 0 01-.72 0c-.374-.412-.72-.847-1.04-1.302a.581.581 0 010-.54c.374-.457.79-.9 1.22-1.386a.444.444 0 01.706 0l1.122 1.386s0 .124.083.25M151.976 54.187l.707-.263v-.18l-.707-.222v.665zm-.568-1.04h1.289c.277 0 .526.167.526.458-.025.267-.09.529-.194.776l.333.956c-.43.139-.693.097-.748-.388a.448.448 0 00-.423-.432.445.445 0 00-.215.044v.818h-.499l-.069-2.231z" fill="#1D1D1B"/></symbol><symbol id="logo_bottom"><path d="M46.462 4.89a4.503 4.503 0 00-.692-2.77 1.524 1.524 0 00-2.383 0 5.181 5.181 0 00-.07 5.279 1.523 1.523 0 002.605-.139c.4-.718.587-1.535.54-2.355V4.89zm-1.704 8.924h-1.455a1.815 1.815 0 00-1.76 1.704 2.092 2.092 0 001.026 1.829 4.669 4.669 0 004.586.318 2.37 2.37 0 001.483-1.593 1.496 1.496 0 00-1.178-2.078c-.887-.139-1.787-.167-2.688-.236l-.014.056zM51.7.069c-.222.485-.458.956-.665 1.386a1.025 1.025 0 01-1.22.72 3.866 3.866 0 00-.942.111c.035.106.082.209.139.305a4.157 4.157 0 01-1.593 5.75 6.54 6.54 0 01-5.723.138c-.803.86-.443 1.594.36 2.106.133.068.281.102.43.097 1.15 0 2.314-.097 3.464-.083a36.7 36.7 0 013.131.18 3.02 3.02 0 012.342 2.619 4.698 4.698 0 01-1.87 3.99 8.978 8.978 0 01-4.518 2.092 6.927 6.927 0 01-5.39-1.025 1.912 1.912 0 01-.304-3.062l1.58-1.524.304-.36a3.922 3.922 0 01-2.3-2.771c-.152-.61.236-.942.54-1.386.305-.443.873-.942 1.317-1.385a7.789 7.789 0 01-.776-.845 4.046 4.046 0 01.97-5.543 6.359 6.359 0 014.89-1.122c1.054.153 2.107.36 3.16.513a1.04 1.04 0 00.512-.153l1.65-.65.165-.167.347.07zM32.98 38.947a5.54 5.54 0 01-.332 1.524c-.27.346-.616.626-1.012.817a9.075 9.075 0 01-3.949 1.26 8.951 8.951 0 01-4.06-.36 4.157 4.157 0 01-2.77-3.962V13.176h-6.928V32.45c0 1.787-.25 3.56-.415 5.334 0 .512-.167 1.011-.25 1.524a2.286 2.286 0 01-1.385 1.773 13.62 13.62 0 01-4.157 1.275c-1.011.152-2.037.236-3.062.333a.594.594 0 01-.43-.167c-.235-.319-.429-.679-.664-1.067.997-.928 1.981-1.842 2.95-2.77.496-.402.96-.843 1.386-1.317.242-.363.385-.784.416-1.22a34.71 34.71 0 00.263-3.795V13.204a17.57 17.57 0 00-8.313 1.385 3.422 3.422 0 00-.138-.485c-.402-.9.207-1.385.775-1.842a12.068 12.068 0 015.958-2.577c.917-.15 1.843-.233 2.771-.25h18.081a17.874 17.874 0 003.935-.47c.831-.181 1.663-.292 2.494-.417.263 0 .457.084.402.402a12.11 12.11 0 01-1.885 5.307 6.936 6.936 0 01-.72.706c-.845-.484-1.663-.942-2.48-1.385a2.44 2.44 0 00-1.386-.346h-1.163v23.401a1.262 1.262 0 00.775 1.233 9.241 9.241 0 002.98.873c.734.125 1.468.194 2.285.29" fill="#9D1D96"/></symbol><symbol id="mail"><path d="M1.055.89h9.89C11.527.89 12 1.361 12 1.943v6.112c0 .582-.473 1.055-1.055 1.055h-9.89A1.056 1.056 0 010 8.056V1.944C0 1.362.473.889 1.055.889zm.137.702l.141.118 4.249 3.537a.654.654 0 00.836 0l4.249-3.537.14-.118H1.193zm10.105.508L7.835 4.982l3.462 2.304V2.1zM1.055 8.408h9.89c.17 0 .312-.121.345-.282L7.272 5.452l-.404.336a1.354 1.354 0 01-1.736 0l-.404-.336L.71 8.126c.033.16.175.282.345.282zM.703 7.286l3.462-2.304L.703 2.1v5.186z" fill="#7E2E84"/></symbol><symbol id="microphone"><path d="M18.51 5.2l-1.612-.646V1.11C16.898.497 16.401 0 15.791 0a1.11 1.11 0 00-1.101.997c-1.708 2.845-5.85 3.068-7.089 3.068h-3.69c-.916 0-1.68.674-1.82 1.554l-1.22.305c-.4.1-.648.38-.648.728V8.87c0 .348.248.627.648.728l1.22.305c.14.88.904 1.553 1.82 1.553h.37v4.383c0 .64.496 1.161 1.107 1.161h1.475c.61 0 1.107-.521 1.107-1.162v-4.375c1.546.05 5.155.455 6.72 3.062.056.559.529.997 1.101.997.61 0 1.107-.498 1.107-1.109v-3.446l1.613-.646c.164-.066.6-.24.6-.712V5.913c0-.472-.436-.647-.6-.713zM.96 8.846v-2.17a.319.319 0 01.09-.035l1.017-.255v2.75L1.05 8.88a.318.318 0 01-.09-.035zm5.903 7.415H5.388c-.2 0-.37-.194-.37-.422v-4.383h2.214v4.382c0 .23-.169.423-.369.423zm4.864-4.871c-1.422-.509-2.856-.641-3.757-.667V9.424a.37.37 0 10-.738 0v1.293h-3.32c-.61 0-1.107-.497-1.107-1.108V5.913c0-.611.497-1.109 1.107-1.109h3.32v1.294a.37.37 0 10.738 0v-1.3c.901-.025 2.335-.158 3.757-.666 1.236-.442 2.226-1.076 2.957-1.89V13.28c-.731-.815-1.721-1.448-2.957-1.89zm4.433 3.023a.37.37 0 01-.738 0V1.109a.37.37 0 01.738 0v13.304zm2.214-4.842a.953.953 0 01-.137.064l-1.339.537V5.35l1.339.537c.075.03.115.05.137.064v3.62z" fill="#7E2E84"/></symbol><symbol id="phone"><path d="M16.024 11.788c-.39-.405-.86-.622-1.358-.622-.494 0-.968.213-1.373.618l-1.27 1.265c-.104-.056-.208-.108-.309-.16-.145-.072-.281-.14-.398-.213-1.188-.755-2.269-1.74-3.305-3.012-.502-.635-.84-1.17-1.084-1.711.329-.302.634-.615.931-.916.113-.112.225-.229.338-.341.843-.844.843-1.936 0-2.78L7.099 2.82c-.124-.125-.253-.253-.373-.382a18.953 18.953 0 00-.755-.747c-.39-.385-.856-.59-1.346-.59-.49 0-.964.205-1.365.59l-.008.008-1.366 1.378a2.938 2.938 0 00-.871 1.867c-.097 1.173.249 2.266.514 2.98.65 1.756 1.622 3.382 3.072 5.125a18.9 18.9 0 006.294 4.928c.924.438 2.157.956 3.534 1.045.085.004.173.008.253.008.928 0 1.707-.334 2.318-.996.004-.008.012-.012.016-.02.209-.253.45-.482.703-.727.172-.165.349-.338.522-.518.397-.414.606-.896.606-1.39 0-.498-.213-.976-.618-1.378l-2.205-2.213zm1.437 4.23c-.004 0-.004.003 0 0-.156.168-.317.32-.49.49-.26.248-.526.51-.775.803-.405.433-.883.638-1.51.638-.06 0-.124 0-.185-.004-1.192-.076-2.3-.542-3.132-.94a17.84 17.84 0 01-5.928-4.642c-1.37-1.651-2.286-3.177-2.892-4.816-.374-1-.51-1.78-.45-2.514.04-.47.22-.86.554-1.193l1.37-1.37c.197-.184.405-.285.61-.285.253 0 .458.153.587.281l.012.012c.245.23.478.466.723.72.124.128.253.256.381.389l1.097 1.096c.425.426.425.82 0 1.245-.117.117-.23.233-.346.346-.337.345-.658.667-1.008.98-.008.008-.016.012-.02.02-.345.345-.281.683-.209.912l.012.036c.285.69.687 1.341 1.298 2.116l.004.004c1.108 1.366 2.277 2.43 3.566 3.246.165.104.333.188.494.269.145.072.281.14.398.213.016.008.032.02.048.028a.87.87 0 00.398.1c.333 0 .542-.209.61-.277l1.374-1.374c.136-.136.353-.3.606-.3.25 0 .454.156.578.292l.008.008 2.213 2.213c.414.41.414.832.004 1.257zM11.269 4.527a5.093 5.093 0 012.77 1.437 5.12 5.12 0 011.439 2.772c.044.265.273.45.534.45.032 0 .06-.005.092-.009a.543.543 0 00.446-.626 6.194 6.194 0 00-1.739-3.354 6.195 6.195 0 00-3.354-1.739.545.545 0 00-.626.442.536.536 0 00.438.627zM19.992 8.394a10.19 10.19 0 00-2.863-5.522A10.191 10.191 0 0011.606.008a.54.54 0 10-.176 1.069 9.126 9.126 0 014.936 2.558 9.099 9.099 0 012.558 4.936c.044.265.273.45.534.45.032 0 .06-.004.093-.008a.532.532 0 00.441-.619z" fill="#6F0068"/></symbol><symbol id="planet" viewBox="-21 -21 682 682.666"><path d="M630.203 74.59c-9.246-29.078-21.777-49.899-22.308-50.774-2.055-3.386-6.286-5.148-10.118-4.27-.992.227-24.656 5.75-51.953 19.384-36.851 18.398-62.594 42.96-74.453 71.02-9.871 23.366-11.289 51.933-4.285 83.491-14.918-16.66-31.7-31.234-49.992-43.504-5.586-11.035-20.356-38.203-43.446-66.597-7.605-9.348-22.234 2.383-14.55 11.824 15.558 19.137 27.27 37.957 34.593 50.887l-85.402-16.649-81.14-110.675c7.878.109 15.785.87 23.652 2.414 24.941 4.882 49.578 17.586 73.238 37.75 9.27 7.902 21.309-6.48 12.16-14.274-26.136-22.273-53.656-36.367-81.797-41.879-42.957-8.406-93.058 2.63-144.902 31.926C70.86 56.5 45.02 80.484 43.941 81.492c-3.457 3.23-4.007 9.098-1.113 12.871 3.79 7.774 18.149 35.817 42.05 66.008 14.09 17.8 28.95 33.035 44.321 45.555a221.99 221.99 0 00-12.73 11.515c-21.969 21.489-38.79 46.836-49.832 74.547-9.762 24.485-15.012 50.825-15.305 77.973-.484 44.394 12.379 87.21 37.207 123.828 24.254 35.766 58.16 63.227 98.05 79.41 11.165 4.52 18.224-12.844 7.052-17.375a197.935 197.935 0 01-40.555-22.308c1.602-8.883 5.316-40.852-15.918-73.946-2.973-4.629 5.914-22.808 11.219-33.668 5.476-11.191 11.129-22.761 13.77-33.656 2.804-11.574-.352-21.289-9.122-28.105-6.437-5.004-14.863-7.594-22.289-9.88-4.824-1.484-10.293-3.163-12.246-4.792-4.023-3.371-10.594-15.828-15.875-25.832-5.86-11.098-11.437-21.66-17.133-28.164 12.817-30.438 33.403-57.371 59.184-77.977 23.55 16.043 50.43 27.113 79 29.356-33.133 25.671-43.852 58.457-28.531 89.949 17.89 36.773 54.714 30.898 87.203 25.722 5.62-.898 11.437-1.824 17.007-2.52 2.09-.26 2.72.31 3.141.68 7.113 6.329 6.902 36.551 6.75 58.622-.207 30.527-.402 59.363 10.969 74.168 5.8 7.547 13.969 11.406 23.543 11.406 5.738 0 11.972-1.383 18.512-4.188 28.277-12.109 57.671-48.554 53.187-77.39-3.918-25.211-6.512-41.867-.398-55.293 5.652-12.426 19.316-23.93 46.226-38.61a197.916 197.916 0 014.68 45.098c-.574 52.867-21.707 102.348-59.5 139.32-42.238 41.32-101.602 61.727-160.324 55.254-11.965-1.297-14.032 17.32-2.051 18.64 64.277 7.08 129.265-15.265 175.484-60.487 41.38-40.48 64.512-94.645 65.14-152.528.837-76.746-38.542-144.738-98.487-183.906 12.386-8.832 21.613-16.469 26.73-20.902 21.856 15.68 41.242 34.996 57.371 57.5 38.719 54.035 54.074 119.906 43.246 185.492C491.211 548.266 362.88 640.23 227.47 617.859c-65.59-10.832-123.032-46.55-161.75-100.586-38.723-54.03-54.078-119.91-43.246-185.492 1.945-11.8-16.543-14.898-18.496-3.054-11.653 70.527 4.867 141.367 46.496 199.472 41.636 58.098 103.414 96.512 173.941 108.164a271.304 271.304 0 0044.18 3.637c55.43 0 109.351-17.21 155.3-50.137 58.114-41.636 96.532-103.402 108.176-173.93 8.535-51.68 1.93-103.527-18.586-150.41 9.47-2.793 25.582-8.214 43.23-17.027 36.845-18.398 62.59-42.96 74.446-71.02 11.867-28.066 11.535-63.644-.957-102.886zM86.04 332.387c6.977 13.226 13.574 25.726 20.43 31.46 4.855 4.06 11.613 6.137 18.765 8.337 18.325 5.632 20.453 8.398 18.696 15.644-2.157 8.91-7.36 19.55-12.387 29.836-9.684 19.813-18.828 38.516-10.16 52.031a89.17 89.17 0 0114.187 49.746c-55.843-50.355-78.582-129.89-57.78-202.18 2.757 4.727 5.655 10.22 8.25 15.126zM539.652 148.14l-26.644-64.57c12.965-12.126 28.008-21.25 40.82-27.676 10.914-5.477 21.297-9.57 29.625-12.473zm61.086-97.45c3.723 8 8.04 18.317 11.727 29.977 4.043 12.797 7.754 28.656 8.492 45.2l-62.441 25.76zM488.641 117.25c2.765-6.54 6.34-12.602 10.468-18.2l30.332 73.497-27.218 65.086c-3.825-8.113-8.328-18.77-12.149-30.875-7.668-24.238-14.137-59.45-1.433-89.508zm60.066 114.281c-10.504 5.274-20.527 9.266-28.691 12.145l28.246-67.528 71.898-29.668c-1.043 8.055-3.031 16.04-6.27 23.696-12.699 30.058-42.456 49.96-65.183 61.355zm-338.074-5.336a126.526 126.526 0 01-9.805-2.343l103.766-76.063 85.441 16.652c-31.125 24.524-106.87 75.965-179.402 61.754zm-94.832-58.66c-22.192-23.918-38.457-49.492-47.797-65.867l108.73 21.2zm19.203-125.09l45.492 62.051L71.062 83.164c13.778-10.879 36.52-27.21 63.942-40.719zm72.617 67.34l-55.152-75.23c16.511-6.785 34.234-12.125 52.402-14.5l76.297 104.062zm-5.836 17.965l77.762 15.156-99.8 73.153c-18.821-8.692-35.759-21.188-50.579-35.079zm254.406 183.086c-33.8 18.008-50.351 32.152-58.203 49.406-8.433 18.528-5.343 38.414-1.066 65.938 2.527 16.23-16.762 46.453-42.035 57.277-9.352 4.004-16.012 3.531-19.805-1.41-7.45-9.695-7.246-39.04-7.086-62.613.223-32.618.418-60.786-13.039-72.758-4.84-4.305-11.031-6.125-17.91-5.281-5.895.734-11.875 1.687-17.652 2.609-34.465 5.492-56.153 7.691-67.387-15.406-18.203-37.41 18.644-65.121 35.332-75.297 3.398-2.07 6.55-4.512 9.48-7.23 40.332-4.821 78.442-22.126 112.403-43.801 40.718 24.328 71.976 62.828 86.968 108.566zm0 0"/></symbol><symbol id="plus"><path d="M11.201 13.021H7.18a.67.67 0 000 1.34h4.021a.67.67 0 000-1.34zM9.497 11.547l2.68-2.01a.67.67 0 00-.804-1.073h.001L9.766 9.67V4.31a.67.67 0 00-1.34 0V9.67L6.816 8.464a.67.67 0 00-.805 1.071v.001l2.682 2.01a.729.729 0 00.803 0z" fill="#272C3E"/><circle cx="9" cy="9" r="8.426" stroke="#272C3E" stroke-width="1.149"/></symbol><symbol id="portugal" viewBox="0 0 512 512"><path d="M0 256c0 110.07 69.472 203.905 166.955 240.076l22.262-240.077-22.262-240.076C69.472 52.095 0 145.929 0 256z" fill="#6da544"/><path d="M512 256C512 114.616 397.384 0 256 0c-31.314 0-61.311 5.633-89.045 15.923v480.154C194.689 506.368 224.686 512 256 512c141.384 0 256-114.616 256-256z" fill="#d80027"/><circle cx="166.957" cy="256" r="89.043" fill="#ffda44"/><path d="M116.87 211.478v55.652c0 27.662 22.424 50.087 50.087 50.087s50.087-22.424 50.087-50.087v-55.652H116.87z" fill="#d80027"/><path d="M166.957 283.826c-9.206 0-16.696-7.49-16.696-16.696v-22.26h33.391v22.261c0 9.205-7.49 16.695-16.695 16.695z" fill="#f0f0f0"/></symbol><symbol id="russia" viewBox="0 0 512 512"><circle cx="256" cy="256" r="256" fill="#f0f0f0"/><path d="M496.077 345.043C506.368 317.31 512 287.314 512 256s-5.632-61.31-15.923-89.043H15.923C5.633 194.69 0 224.686 0 256s5.633 61.31 15.923 89.043L256 367.304l240.077-22.261z" fill="#0052b4"/><path d="M256 512c110.071 0 203.906-69.472 240.077-166.957H15.923C52.094 442.528 145.929 512 256 512z" fill="#d80027"/></symbol><symbol id="search"><path stroke="#6F0068" fill="#6F0068" stroke-width="1.5" stroke-linecap="round" d="M13.061 13L17 16.939"/><circle cx="7.5" cy="7.5" r="6.75" stroke="#6F0068" fill="#fff" stroke-width="1.5" stroke-linecap="round"/></symbol><symbol id="sity" viewBox="0 0 60 60"><path d="M49.7 22c-1.1 0-2 .9-2 2v32.2c0 1.1.9 2 2 2s2-.9 2-2V24c0-1.1-.9-2-2-2zM13 29.5c1.1 0 2-.9 2-2s-.9-2-2-2H5.7v-3h20.8c1.1 0 2-.9 2-2s-.9-2-2-2H5.7v-3h20.8c1.1 0 2-.9 2-2s-.9-2-2-2H5.7V7.1h24.8v15.3c0 1.1.9 2 2 2s2-.9 2-2V5.1c0-1.1-.9-2-2-2H3.7c-1.1 0-2 .9-2 2v51c0 1.1.9 2 2 2s2-.9 2-2V36.5H13c1.1 0 2-.9 2-2s-.9-2-2-2H5.7v-3H13z"/><path d="M58 11.9v-.2c0-.1 0-.1-.1-.2 0-.1 0-.1-.1-.2 0-.1-.1-.1-.1-.2 0 0 0-.1-.1-.1 0-.1-.1-.1-.1-.2l-.1-.1-.1-.1c-.1 0-.1-.1-.2-.1 0 0-.1-.1-.2-.1s-.1-.1-.2-.1-.1 0-.2-.1c-.1 0-.1 0-.2-.1H56h-.5c-.1 0-.1 0-.2.1-.1 0-.1.1-.2.1 0 0-.1 0-.1.1l-12.6 7.8c-.1 0-.1.1-.2.1l-.1.1-.1.1s-.1.1-.1.2-.1.1-.1.2-.1.1-.1.2 0 .1-.1.2c0 .1 0 .1-.1.2V25.3H22.1c-1.1 0-2 .9-2 2v28.9c0 1.1.9 2 2 2s2-.9 2-2V29.3h17.3v26.9c0 1.1.9 2 2 2s2-.9 2-2V21l8.6-5.3v40.5c0 1.1.9 2 2 2s2-.9 2-2V12.1v-.2z"/><path d="M28 31c-1.1 0-2 .9-2 2s.9 2 2 2 2-.9 2-2-.9-2-2-2zM33.5 31c-1.1 0-2 .9-2 2s.9 2 2 2 2-.9 2-2-.9-2-2-2zM28 36c-1.1 0-2 .9-2 2s.9 2 2 2 2-.9 2-2-.9-2-2-2zM33.5 36c-1.1 0-2 .9-2 2s.9 2 2 2 2-.9 2-2-.9-2-2-2z"/></symbol><symbol id="south-korea" viewBox="0 0 512 512"><circle cx="256" cy="256" r="256" fill="#f0f0f0"/><path d="M345.043 256c0 22.261-39.866 77.913-89.043 77.913S166.957 278.261 166.957 256c0-49.178 39.866-89.043 89.043-89.043s89.043 39.865 89.043 89.043z" fill="#d80027"/><path d="M345.043 256c0 49.178-39.866 89.043-89.043 89.043S166.957 305.178 166.957 256" fill="#0052b4"/><path d="M350.442 334.705l23.61-23.61 15.741 15.74-23.61 23.61zM311.085 374.06l23.61-23.612 15.741 15.741-23.61 23.611zM397.67 381.917l23.611-23.61 15.74 15.74-23.61 23.61zM358.314 421.278l23.61-23.61 15.741 15.74-23.61 23.611zM374.055 358.313l23.61-23.61 15.741 15.74-23.61 23.61zM334.709 397.667l23.61-23.61 15.741 15.74-23.61 23.611zM397.678 177.29l-62.963-62.963 15.741-15.74 62.962 62.962zM334.713 161.558l-23.61-23.61 15.74-15.74 23.61 23.61zM374.06 200.907l-23.61-23.611 15.74-15.74 23.61 23.61zM381.915 114.336l-23.61-23.611 15.74-15.741 23.61 23.61zM421.283 153.688l-23.611-23.61 15.74-15.741 23.612 23.61zM90.723 358.318l62.962 62.962-15.74 15.74-62.963-62.961zM153.68 374.05l23.611 23.611-15.74 15.74-23.61-23.61zM114.33 334.703l23.611 23.611-15.74 15.741-23.611-23.61zM137.943 311.091l62.962 62.963-15.74 15.74-62.963-62.962zM153.684 90.72L90.72 153.683l-15.74-15.741 62.962-62.963zM177.287 114.325l-62.963 62.963-15.74-15.741 62.962-62.962zM200.912 137.947l-62.962 62.962-15.74-15.74 62.962-62.962z"/></symbol><symbol id="spain" viewBox="0 0 512 512"><path d="M0 256c0 31.314 5.633 61.31 15.923 89.043L256 367.304l240.077-22.261C506.367 317.31 512 287.314 512 256s-5.633-61.31-15.923-89.043L256 144.696 15.923 166.957C5.633 194.69 0 224.686 0 256z" fill="#ffda44"/><g fill="#d80027"><path d="M496.077 166.957C459.906 69.473 366.071 0 256 0S52.094 69.473 15.923 166.957h480.154zM15.923 345.043C52.094 442.527 145.929 512 256 512s203.906-69.473 240.077-166.957H15.923z"/></g></symbol><symbol id="telegram"><path d="M7.063 9.886l-.298 4.188c.426 0 .61-.183.832-.403l1.997-1.909 4.139 3.031c.759.423 1.294.2 1.498-.698l2.717-12.729C18.19.242 17.544-.196 16.804.08L.836 6.193c-1.09.423-1.074 1.03-.186 1.306l4.083 1.27 9.482-5.934c.447-.295.852-.132.518.164l-7.67 6.887z" fill="#fff"/></symbol><symbol id="turkey" viewBox="0 0 512 512"><circle cx="256" cy="256" r="256" fill="#d80027"/><g fill="#f0f0f0"><path d="M245.518 209.186l21.005 28.945 34.017-11.03-21.038 28.92 21.002 28.944-34.005-11.072-21.037 28.92.022-35.761-34.006-11.072 34.018-11.03z"/><path d="M188.194 328.348c-39.956 0-72.348-32.392-72.348-72.348s32.392-72.348 72.348-72.348c12.458 0 24.18 3.151 34.414 8.696-16.055-15.702-38.012-25.392-62.24-25.392-49.178 0-89.043 39.866-89.043 89.043s39.866 89.043 89.043 89.043c24.23 0 46.186-9.691 62.24-25.392-10.234 5.547-21.956 8.698-34.414 8.698z"/></g></symbol><symbol id="vk"><path d="M18.83 10.398c-.05-.086-.366-.772-1.886-2.183-1.592-1.477-1.378-1.237.539-3.792 1.167-1.556 1.634-2.506 1.488-2.912-.14-.387-.998-.285-.998-.285l-2.855.017s-.211-.029-.37.065c-.152.093-.25.307-.25.307s-.453 1.204-1.057 2.227c-1.272 2.16-1.781 2.275-1.989 2.14-.483-.312-.362-1.256-.362-1.926 0-2.093.317-2.966-.619-3.192-.31-.075-.539-.125-1.333-.133-1.02-.01-1.883.004-2.37.242-.326.16-.577.514-.424.535.19.025.617.115.844.424.293.397.282 1.293.282 1.293s.169 2.464-.393 2.77c-.386.21-.914-.218-2.048-2.179-.581-1.003-1.02-2.114-1.02-2.114s-.085-.206-.236-.317c-.183-.134-.44-.177-.44-.177L.62 1.225s-.407.012-.557.189c-.133.158-.01.483-.01.483s2.125 4.973 4.531 7.48c2.208 2.298 4.714 2.147 4.714 2.147h1.135s.343-.038.518-.227c.161-.173.155-.499.155-.499s-.022-1.524.686-1.748c.697-.22 1.592 1.473 2.541 2.125.717.492 1.262.384 1.262.384l2.538-.035s1.328-.082.699-1.126z" fill="#fff"/></symbol><symbol id="youtube"><path d="M15.723 9.627c-.196-.851-.892-1.479-1.73-1.572-1.983-.222-3.992-.223-5.99-.222-2 0-4.008 0-5.992.222-.838.093-1.533.721-1.729 1.572C.003 10.839 0 12.16 0 13.409c0 1.248 0 2.57.279 3.782.195.85.891 1.479 1.729 1.572 1.984.222 3.992.223 5.991.222 2 .001 4.008 0 5.992-.222.837-.093 1.533-.721 1.729-1.572.278-1.212.28-2.534.28-3.782 0-1.248.002-2.57-.277-3.782zm-11.16.94H3.407v6.152H2.33v-6.153H1.193V9.558h3.37v1.008zm2.922 6.153h-.967v-.582c-.385.44-.75.655-1.105.655-.312 0-.526-.126-.623-.396-.053-.162-.085-.417-.085-.794v-4.22h.966v3.93c0 .226 0 .344.01.375.022.15.096.227.225.227.194 0 .397-.15.612-.453v-4.078h.967v5.336zm3.674-1.602c0 .494-.034.85-.098 1.075-.13.397-.388.6-.772.6-.345 0-.677-.19-1-.59v.517h-.967V9.558h.967v2.339c.312-.384.644-.579 1-.579.384 0 .643.203.772.602.065.215.098.568.098 1.073v2.125zm3.649-.89h-1.934v.946c0 .494.162.74.494.74.238 0 .377-.129.432-.387a6.07 6.07 0 00.021-.655h.987v.14c0 .312-.012.527-.02.623a1.378 1.378 0 01-.226.58c-.268.387-.665.578-1.17.578-.506 0-.891-.182-1.17-.546-.205-.267-.31-.688-.31-1.255v-1.869c0-.57.093-.987.298-1.257.28-.365.664-.547 1.158-.547.485 0 .87.182 1.14.547.203.27.3.687.3 1.257v1.105z" fill="#fff"/><path d="M13.358 12.189c-.323 0-.485.247-.485.74v.494h.967v-.494c0-.493-.162-.74-.482-.74zM9.771 12.189c-.159 0-.32.075-.482.235v3.252c.161.162.323.239.482.239.28 0 .42-.239.42-.72v-2.278c0-.481-.14-.728-.42-.728zM10.312 7.341c.356 0 .727-.216 1.116-.662v.588h.977V1.875h-.977v4.121c-.217.306-.422.458-.617.458-.131 0-.208-.078-.23-.23-.011-.031-.011-.15-.011-.379v-3.97h-.974v4.264c0 .38.032.638.086.802.098.273.315.4.63.4zM3.508 4.337v2.93H4.59v-2.93L5.895.03H4.799l-.74 2.842L3.292.03H2.15c.228.67.466 1.345.694 2.016.348 1.01.565 1.77.663 2.29zM7.348 7.341c.49 0 .87-.184 1.14-.552.205-.27.303-.695.303-1.268V3.633c0-.577-.098-.998-.303-1.27-.27-.37-.65-.554-1.14-.554-.487 0-.867.185-1.138.554-.207.272-.306.693-.306 1.27V5.52c0 .573.099.999.306 1.268.27.368.65.552 1.138.552zm-.466-3.904c0-.499.15-.748.466-.748.315 0 .466.249.466.748v2.268c0 .5-.151.749-.466.749-.315 0-.466-.25-.466-.749V3.437z" fill="#fff"/></symbol></svg>