<svg xmlns="http://www.w3.org/2000/svg" xmlns:xlink="http://www.w3.org/1999/xlink"><symbol id="callback"><path d="M1.888 14.455l-.114.911a.75.75 0 01-.834.65c-.378-.047-.687-.356-.65-.833l.342-2.74a.75.75 0 01.83-.651l2.777.338a.747.747 0 11-.184 1.48l-1.032-.125a7.446 7.446 0 008.291 2.656c3.068-.988 5.173-3.89 5.18-7.097 0-.474.316-.775.727-.786.412-.007.764.287.764.786 0 3.85-2.53 7.336-6.215 8.519a8.924 8.924 0 01-9.882-3.108zM13.746 5.866a.747.747 0 11.184-1.48l1.032.125a7.446 7.446 0 00-8.29-2.656c-3.068.988-5.173 3.89-5.18 7.097 0 .474-.316.775-.728.786C.353 9.746 0 9.452 0 8.952-.004 5.106 2.527 1.62 6.212.437A8.932 8.932 0 0116.1 3.545l.114-.911a.75.75 0 01.834-.65c.378.047.687.356.65.833l-.342 2.74a.75.75 0 01-.83.651l-2.78-.342z"/></symbol><symbol id="edit-close"><path stroke="#7E2E84" d="M.5.5h43v43H.5z"/><path d="M34 13.216L32.784 12 23 21.784 13.216 12 12 13.216 21.784 23 12 32.784 13.216 34 23 24.216 32.784 34 34 32.784 24.216 23 34 13.216z" fill="#7E2E84"/></symbol><symbol id="edit"><path d="M31.577 12.424a4.853 4.853 0 00-6.868 0L12.117 25.012a.63.63 0 00-.178.36l-.933 6.91a.627.627 0 00.178.53.64.64 0 00.445.189.512.512 0 00.084 0l4.163-.563a.639.639 0 00-.168-1.266l-3.338.45.652-4.82 5.073 5.074a.62.62 0 00.89 0l12.592-12.584a4.85 4.85 0 000-6.868zm-6.625 1.548l2.114 2.114-11.49 11.486-2.114-2.11 11.49-11.49zm-6.408 16.567l-2.068-2.067 11.49-11.49 2.067 2.067-11.49 11.49zm12.372-12.4l-5.06-5.054a3.593 3.593 0 015.059 5.058v-.004z" fill="#7E2E84"/><path stroke="#7E2E84" d="M.5.5h43v43H.5z"/></symbol><symbol id="fb"><path d="M6.875 7.626v-2.75c0-.759.616-1.375 1.375-1.375h1.375V.064h-2.75A4.125 4.125 0 002.75 4.189v3.437H0v3.438h2.75v11h4.125v-11h2.75L11 7.626H6.875z" fill="#fff"/></symbol><symbol id="insta"><path d="M2.183.213C.863.213 0 1.079 0 2.219c0 1.114.837 2.005 2.132 2.005h.025c1.346 0 2.183-.891 2.183-2.005C4.315 1.079 3.503.213 2.183.213zM.229 5.809h3.858v11.609H.23V5.808zM13.557 5.536c-2.082 0-3.478 1.956-3.478 1.956V5.81H6.221v11.609h3.858v-6.483c0-.347.025-.694.127-.942.28-.693.914-1.41 1.98-1.41 1.396 0 1.955 1.064 1.955 2.624v6.21h3.858v-6.656c0-3.565-1.904-5.225-4.442-5.225z" fill="#fff"/></symbol><symbol id="logo_bottom"><path d="M46.462 4.89a4.503 4.503 0 00-.692-2.77 1.524 1.524 0 00-2.383 0 5.181 5.181 0 00-.07 5.279 1.523 1.523 0 002.605-.139c.4-.718.587-1.535.54-2.355V4.89zm-1.704 8.924h-1.455a1.815 1.815 0 00-1.76 1.704 2.092 2.092 0 001.026 1.829 4.669 4.669 0 004.586.318 2.37 2.37 0 001.483-1.593 1.496 1.496 0 00-1.178-2.078c-.887-.139-1.787-.167-2.688-.236l-.014.056zM51.7.069c-.222.485-.458.956-.665 1.386a1.025 1.025 0 01-1.22.72 3.866 3.866 0 00-.942.111c.035.106.082.209.139.305a4.157 4.157 0 01-1.593 5.75 6.54 6.54 0 01-5.723.138c-.803.86-.443 1.594.36 2.106.133.068.281.102.43.097 1.15 0 2.314-.097 3.464-.083a36.7 36.7 0 013.131.18 3.02 3.02 0 012.342 2.619 4.698 4.698 0 01-1.87 3.99 8.978 8.978 0 01-4.518 2.092 6.927 6.927 0 01-5.39-1.025 1.912 1.912 0 01-.304-3.062l1.58-1.524.304-.36a3.922 3.922 0 01-2.3-2.771c-.152-.61.236-.942.54-1.386.305-.443.873-.942 1.317-1.385a7.789 7.789 0 01-.776-.845 4.046 4.046 0 01.97-5.543 6.359 6.359 0 014.89-1.122c1.054.153 2.107.36 3.16.513a1.04 1.04 0 00.512-.153l1.65-.65.165-.167.347.07zM32.98 38.947a5.54 5.54 0 01-.332 1.524c-.27.346-.616.626-1.012.817a9.075 9.075 0 01-3.949 1.26 8.951 8.951 0 01-4.06-.36 4.157 4.157 0 01-2.77-3.962V13.176h-6.928V32.45c0 1.787-.25 3.56-.415 5.334 0 .512-.167 1.011-.25 1.524a2.286 2.286 0 01-1.385 1.773 13.62 13.62 0 01-4.157 1.275c-1.011.152-2.037.236-3.062.333a.594.594 0 01-.43-.167c-.235-.319-.429-.679-.664-1.067.997-.928 1.981-1.842 2.95-2.77.496-.402.96-.843 1.386-1.317.242-.363.385-.784.416-1.22a34.71 34.71 0 00.263-3.795V13.204a17.57 17.57 0 00-8.313 1.385 3.422 3.422 0 00-.138-.485c-.402-.9.207-1.385.775-1.842a12.068 12.068 0 015.958-2.577c.917-.15 1.843-.233 2.771-.25h18.081a17.874 17.874 0 003.935-.47c.831-.181 1.663-.292 2.494-.417.263 0 .457.084.402.402a12.11 12.11 0 01-1.885 5.307 6.936 6.936 0 01-.72.706c-.845-.484-1.663-.942-2.48-1.385a2.44 2.44 0 00-1.386-.346h-1.163v23.401a1.262 1.262 0 00.775 1.233 9.241 9.241 0 002.98.873c.734.125 1.468.194 2.285.29" fill="#9D1D96"/></symbol><symbol id="mail"><path d="M1.055.89h9.89C11.527.89 12 1.361 12 1.943v6.112c0 .582-.473 1.055-1.055 1.055h-9.89A1.056 1.056 0 010 8.056V1.944C0 1.362.473.889 1.055.889zm.137.702l.141.118 4.249 3.537a.654.654 0 00.836 0l4.249-3.537.14-.118H1.193zm10.105.508L7.835 4.982l3.462 2.304V2.1zM1.055 8.408h9.89c.17 0 .312-.121.345-.282L7.272 5.452l-.404.336a1.354 1.354 0 01-1.736 0l-.404-.336L.71 8.126c.033.16.175.282.345.282zM.703 7.286l3.462-2.304L.703 2.1v5.186z" fill="#7E2E84"/></symbol><symbol id="microphone"><path d="M18.51 5.2l-1.612-.646V1.11C16.898.497 16.401 0 15.791 0a1.11 1.11 0 00-1.101.997c-1.708 2.845-5.85 3.068-7.089 3.068h-3.69c-.916 0-1.68.674-1.82 1.554l-1.22.305c-.4.1-.648.38-.648.728V8.87c0 .348.248.627.648.728l1.22.305c.14.88.904 1.553 1.82 1.553h.37v4.383c0 .64.496 1.161 1.107 1.161h1.475c.61 0 1.107-.521 1.107-1.162v-4.375c1.546.05 5.155.455 6.72 3.062.056.559.529.997 1.101.997.61 0 1.107-.498 1.107-1.109v-3.446l1.613-.646c.164-.066.6-.24.6-.712V5.913c0-.472-.436-.647-.6-.713zM.96 8.846v-2.17a.319.319 0 01.09-.035l1.017-.255v2.75L1.05 8.88a.318.318 0 01-.09-.035zm5.903 7.415H5.388c-.2 0-.37-.194-.37-.422v-4.383h2.214v4.382c0 .23-.169.423-.369.423zm4.864-4.871c-1.422-.509-2.856-.641-3.757-.667V9.424a.37.37 0 10-.738 0v1.293h-3.32c-.61 0-1.107-.497-1.107-1.108V5.913c0-.611.497-1.109 1.107-1.109h3.32v1.294a.37.37 0 10.738 0v-1.3c.901-.025 2.335-.158 3.757-.666 1.236-.442 2.226-1.076 2.957-1.89V13.28c-.731-.815-1.721-1.448-2.957-1.89zm4.433 3.023a.37.37 0 01-.738 0V1.109a.37.37 0 01.738 0v13.304zm2.214-4.842a.953.953 0 01-.137.064l-1.339.537V5.35l1.339.537c.075.03.115.05.137.064v3.62z" fill="#7E2E84"/></symbol><symbol id="plus"><path d="M11.201 13.021H7.18a.67.67 0 000 1.34h4.021a.67.67 0 000-1.34zM9.497 11.547l2.68-2.01a.67.67 0 00-.804-1.073h.001L9.766 9.67V4.31a.67.67 0 00-1.34 0V9.67L6.816 8.464a.67.67 0 00-.805 1.071v.001l2.682 2.01a.729.729 0 00.803 0z" fill="#272C3E"/><circle cx="9" cy="9" r="8.426" stroke="#272C3E" stroke-width="1.149"/></symbol><symbol id="telegram"><path d="M7.063 9.886l-.298 4.188c.426 0 .61-.183.832-.403l1.997-1.909 4.139 3.031c.759.423 1.294.2 1.498-.698l2.717-12.729C18.19.242 17.544-.196 16.804.08L.836 6.193c-1.09.423-1.074 1.03-.186 1.306l4.083 1.27 9.482-5.934c.447-.295.852-.132.518.164l-7.67 6.887z" fill="#fff"/></symbol><symbol id="vk"><path d="M18.83 10.398c-.05-.086-.366-.772-1.886-2.183-1.592-1.477-1.378-1.237.539-3.792 1.167-1.556 1.634-2.506 1.488-2.912-.14-.387-.998-.285-.998-.285l-2.855.017s-.211-.029-.37.065c-.152.093-.25.307-.25.307s-.453 1.204-1.057 2.227c-1.272 2.16-1.781 2.275-1.989 2.14-.483-.312-.362-1.256-.362-1.926 0-2.093.317-2.966-.619-3.192-.31-.075-.539-.125-1.333-.133-1.02-.01-1.883.004-2.37.242-.326.16-.577.514-.424.535.19.025.617.115.844.424.293.397.282 1.293.282 1.293s.169 2.464-.393 2.77c-.386.21-.914-.218-2.048-2.179-.581-1.003-1.02-2.114-1.02-2.114s-.085-.206-.236-.317c-.183-.134-.44-.177-.44-.177L.62 1.225s-.407.012-.557.189c-.133.158-.01.483-.01.483s2.125 4.973 4.531 7.48c2.208 2.298 4.714 2.147 4.714 2.147h1.135s.343-.038.518-.227c.161-.173.155-.499.155-.499s-.022-1.524.686-1.748c.697-.22 1.592 1.473 2.541 2.125.717.492 1.262.384 1.262.384l2.538-.035s1.328-.082.699-1.126z" fill="#fff"/></symbol><symbol id="youtube"><path d="M15.723 9.627c-.196-.851-.892-1.479-1.73-1.572-1.983-.222-3.992-.223-5.99-.222-2 0-4.008 0-5.992.222-.838.093-1.533.721-1.729 1.572C.003 10.839 0 12.16 0 13.409c0 1.248 0 2.57.279 3.782.195.85.891 1.479 1.729 1.572 1.984.222 3.992.223 5.991.222 2 .001 4.008 0 5.992-.222.837-.093 1.533-.721 1.729-1.572.278-1.212.28-2.534.28-3.782 0-1.248.002-2.57-.277-3.782zm-11.16.94H3.407v6.152H2.33v-6.153H1.193V9.558h3.37v1.008zm2.922 6.153h-.967v-.582c-.385.44-.75.655-1.105.655-.312 0-.526-.126-.623-.396-.053-.162-.085-.417-.085-.794v-4.22h.966v3.93c0 .226 0 .344.01.375.022.15.096.227.225.227.194 0 .397-.15.612-.453v-4.078h.967v5.336zm3.674-1.602c0 .494-.034.85-.098 1.075-.13.397-.388.6-.772.6-.345 0-.677-.19-1-.59v.517h-.967V9.558h.967v2.339c.312-.384.644-.579 1-.579.384 0 .643.203.772.602.065.215.098.568.098 1.073v2.125zm3.649-.89h-1.934v.946c0 .494.162.74.494.74.238 0 .377-.129.432-.387a6.07 6.07 0 00.021-.655h.987v.14c0 .312-.012.527-.02.623a1.378 1.378 0 01-.226.58c-.268.387-.665.578-1.17.578-.506 0-.891-.182-1.17-.546-.205-.267-.31-.688-.31-1.255v-1.869c0-.57.093-.987.298-1.257.28-.365.664-.547 1.158-.547.485 0 .87.182 1.14.547.203.27.3.687.3 1.257v1.105z" fill="#fff"/><path d="M13.358 12.189c-.323 0-.485.247-.485.74v.494h.967v-.494c0-.493-.162-.74-.482-.74zM9.771 12.189c-.159 0-.32.075-.482.235v3.252c.161.162.323.239.482.239.28 0 .42-.239.42-.72v-2.278c0-.481-.14-.728-.42-.728zM10.312 7.341c.356 0 .727-.216 1.116-.662v.588h.977V1.875h-.977v4.121c-.217.306-.422.458-.617.458-.131 0-.208-.078-.23-.23-.011-.031-.011-.15-.011-.379v-3.97h-.974v4.264c0 .38.032.638.086.802.098.273.315.4.63.4zM3.508 4.337v2.93H4.59v-2.93L5.895.03H4.799l-.74 2.842L3.292.03H2.15c.228.67.466 1.345.694 2.016.348 1.01.565 1.77.663 2.29zM7.348 7.341c.49 0 .87-.184 1.14-.552.205-.27.303-.695.303-1.268V3.633c0-.577-.098-.998-.303-1.27-.27-.37-.65-.554-1.14-.554-.487 0-.867.185-1.138.554-.207.272-.306.693-.306 1.27V5.52c0 .573.099.999.306 1.268.27.368.65.552 1.138.552zm-.466-3.904c0-.499.15-.748.466-.748.315 0 .466.249.466.748v2.268c0 .5-.151.749-.466.749-.315 0-.466-.25-.466-.749V3.437z" fill="#fff"/></symbol></svg>